<svg xmlns="http://www.w3.org/2000/svg" viewBox="0 0 879.71 232.33"><defs><style>.cls-1{fill:#fefefe;}</style></defs><g id="Layer_2" data-name="Layer 2"><g id="Layer_1-2" data-name="Layer 1"><path class="cls-1" d="M186,191.69H205.1V228.3H115.71V191.68h18.48v-79H72.67v78.78H94.75v36.74H1.6V191.7H20.54V112.53H0V75.27H20.84c0-3,0-5.61,0-8.17C20.81,37.17,38.49,20,65,14.23c13.72-3,27.51-2.87,41.6-1.33V53.25c-4.34-.24-8.58-.74-12.8-.63a48.35,48.35,0,0,0-11.12,1.43c-7.43,2-10.18,5.86-10.23,13.44,0,2.44,0,4.88,0,7.61H186Z"/><path class="cls-1" d="M530.07,161.1H433c.63,11.45,10.17,22.91,22.52,26.49,13.95,4,27.4,1.38,40.38-4.26,5.31-2.31,10.39-5.16,15.91-7.94l18.54,35.29c-6.68,5.58-14.29,9.57-22.25,12.89a111.59,111.59,0,0,1-49.62,8.59c-38.19-2.13-69.37-24.46-77.18-64.88-4.55-23.58-.24-46.1,14.34-65.94,9.7-13.2,22.68-21.67,38.31-26.24,17.46-5.1,35-5.31,52.22.51,23,7.77,36.53,24.44,42.48,47.6C531.85,135.55,531.69,148.06,530.07,161.1Zm-52.34-28.22c.54-11.46-8.13-23.37-20.93-22.68-11.91.64-22,11.78-22.24,22.68Z"/><path class="cls-1" d="M199.4,112.43v-37h81.38v36.88H267.7c6.71,25.74,17.43,49.74,22,76.66,4.78-26.8,15.25-50.8,22.06-76.43h-13.2V75.44h81.4v37c-4.52,0-9.17.2-13.8-.08-2.71-.15-3.75.87-4.63,3.29-13.22,36.29-26.57,72.52-39.74,108.82-1.11,3.06-2.43,4.15-5.77,4.11q-26.36-.28-52.71,0c-3.19,0-4.52-1-5.55-3.89-13.21-36.28-26.56-72.51-39.72-108.81-1-2.65-2-3.69-4.87-3.54C208.64,112.6,204.12,112.43,199.4,112.43Z"/><path class="cls-1" d="M749.82,109.73c10.84-24.36,27.5-38.43,54.76-37.21v49.87c-7.88.65-15.53.6-22.88,2-15.52,3.07-24.9,13.54-27.59,28.49-2.25,12.5-1.89,25.46-2.71,38.57H773v36.85H679.75V191.67H700.6v-3.82q0-33.78,0-67.56c0-5.7-1.93-7.74-7.58-7.85-4.39-.08-8.79,0-13.34,0V75.52a20.34,20.34,0,0,1,2.62-.32c16.53,0,33.07-.26,49.59.08,10,.21,17.91,5.51,18,18,0,3.9,0,7.81,0,11.71Z"/><path class="cls-1" d="M542.78,111.87q0-17.06,0-34c0-.76.07-1.51.14-2.68h4.36c15.36,0,30.72,0,46.08,0,12.39,0,20.47,6.62,19.77,19.8-.25,4.67,0,9.36,0,14.8,10.63-24.24,27.26-38.46,54.69-37.27v49.87C660,123,652.3,123,645,124.45c-15.83,3.22-25.16,13.9-27.7,29.31-2,12.19-1.77,24.76-2.57,37.73h21.47V228.3H543V191.69h20.89V120.52c0-6-1.85-7.94-7.75-8.09-4-.11-8.07-.08-12.1-.12A5.91,5.91,0,0,1,542.78,111.87Z"/><path class="cls-1" d="M135.75,33.8c-.54-12.53,9.53-24.62,24.47-24.75A24.4,24.4,0,0,1,185,34c-.18,13.72-11,24.9-24.56,24.79C145.62,58.63,135,46.23,135.75,33.8Z"/><path class="cls-1" d="M879.71,33.28a32.56,32.56,0,0,1-33.49,33.21c-18-.54-31.94-15.4-31.48-34.49A32.82,32.82,0,0,1,849.88.05C865.91.92,879.93,15.87,879.71,33.28ZM847.09,9.43c-12.7.06-22.38,10.46-22.27,23.93.1,13.24,10.18,23.91,22.53,23.87S870,46.16,869.84,32.94C869.65,19.54,859.81,9.37,847.09,9.43Z"/><path class="cls-1" d="M856.05,35.69l6.66,12.93c-3.45,0-6.36.16-9.24-.11-.81-.07-1.76-1.25-2.22-2.15-1-2.06-1.71-4.31-2.77-6.36a13.82,13.82,0,0,0-2.34-2.65l-1,.56V48.43h-9.37v-31c5.83,0,11.52-.27,17.18.09a8.88,8.88,0,0,1,7.76,7.12C861.41,29.15,860.88,33.26,856.05,35.69Zm-10.79-3.27c2.31-1.19,4.19-1.71,5.31-2.92a3.78,3.78,0,0,0,0-3.74c-1.22-1.23-3.15-1.76-5.27-2.83Z"/></g></g></svg>