<svg xmlns="http://www.w3.org/2000/svg" viewBox="0 0 948.29 228.7"><defs><style>.cls-1{fill:#fff;}</style></defs><g id="Layer_2" data-name="Layer 2"><g id="Layer_1-2" data-name="Layer 1"><path class="cls-1" d="M95.86,127.76c-5.85-4.25-5.19-8.92-1.43-14.32,2.26-3.25,3.69-7.08,5.5-10.64l-.07,0,.67-.86c.67-1.11,1.4-2.2,2-3.34q16.11-30.37,32.19-60.78c3.55-6.73,3.49-6.61,11.56-6.17,15.81.87,31.64,1.56,47.46,2.34.85,0,1.7.24,2.77.4l-2,12.08c.18,1.26.35,2.52.52,3.77-.51,1.32-1,2.64-1.54,4l0,.08-.39.69-.22,2.41-.09,1.58a.39.39,0,0,0-.14.48c-.46,2.71-.91,5.41-1.37,8.12q-3.51,20.05-7,40.11a40.53,40.53,0,0,0-1.09,7.28c.08,8.11-6,12.11-10.89,16.92q-17.06,16.77-34.15,33.52l-5.36,1.9c-5.2-5.6-10.34-11.19-15.53-16.74Q106.57,139.11,95.86,127.76Z"/><path class="cls-1" d="M96.53,102.58l-8.83,16.1L0,24.66c4.41,0,7.85-.15,11.28,0,13.61.7,27.21,1.51,40.82,2.26,18.4,1,36.81,2.06,55.21,3,7.65.38,15.31.51,23,.76l3.47.64c-5.22,10-10.21,19.46-15.17,29Q107.55,81.43,96.53,102.58Z"/><path class="cls-1" d="M655.65,93.43a44.37,44.37,0,0,1,24.06-7.53c7.72-.16,15.67-.09,20.72,7a23.84,23.84,0,0,1,3.94,10.58c1.33,11.2-1.72,22.09-3.22,33.08-1.48,10.83-3.48,21.6-5.23,32.4-1.32,8.09-1.86,7.25-7.76,7.18s-12-.13-18,0c-3.22.09-4.6-.93-4.07-4.3,1.49-9.41,2.86-18.85,4.3-28.27,1.31-8.53,2.8-17,3.92-25.58.68-5.26-1.48-7.44-6.73-7.57-1,0-2.08,0-3.12,0-8,.27-10.17,2-11.39,9.61-2.51,15.64-4.81,31.32-7.2,47a40.88,40.88,0,0,1-.9,5.31c-.64,2.21-1.79,3.85-4.61,3.8q-10.53-.21-21.08,0c-3.18.06-4.28-1.52-3.86-4.32,1.33-8.79,2.79-17.56,4.19-26.33q3-18.67,6-37.35c.94-5.84,2-11.67,2.91-17.51.42-2.7,1.9-3.66,4.53-3.61,5.72.09,11.45,0,17.17,0C656.31,87.05,656.54,87.29,655.65,93.43Z"/><path class="cls-1" d="M357.76,140.14c-1.18,9.69,2.42,13.23,12.38,13.22,9.47,0,18.94-.81,28.4-1.34,2.83-.16,4.56.17,3.76,3.81-.87,4-.91,8.21-1.86,12.18-.42,1.75-1.94,4.14-3.44,4.57-15.13,4.34-30.48,7.07-46.2,3.54-16.47-3.69-24-16.7-22.14-32.65,1.12-9.78,2.53-19.78,5.73-29,5.88-17,18.75-26,36.66-28.34a49.21,49.21,0,0,1,20.36,1.32c13.88,4,19.26,13.82,19.93,26.4.38,7-1.28,14.11-1.89,21.18-.37,4.26-3,5.18-6.66,5.16-13.66-.07-27.33,0-41,0Zm3.09-16.65h22.31c1.43-12.45-2.83-14.63-8.74-15C367.1,107.93,360.8,115.11,360.85,123.49Z"/><path class="cls-1" d="M802.54,140.14c-1.8,8.51,1.45,13.14,10,13.2,9.73.07,19.47-.56,29.18-1.2,4.66-.31,5.58.15,4.91,4.6a109.89,109.89,0,0,1-2.32,12.1c-.4,1.5-1.82,3.47-3.17,3.85-15.16,4.2-30.55,7.06-46.24,3.4-18.15-4.22-23.74-19.08-22.17-34.28a149.22,149.22,0,0,1,3.68-20.87c4.64-18.55,16.17-30.53,35.16-34.28,11.77-2.32,23.51-2,33.66,5.62,9.49,7.14,11.1,17.56,10.54,28.47-.24,4.75-1.57,9.43-2,14.18-.34,4.07-2.58,5.22-6.15,5.22q-21.27,0-42.54,0Zm24.35-16.49c2-5.07,1.05-10.43-2.35-13.24-3.24-2.67-8.72-2.66-13,.17-4.62,3-5.78,8-6.84,13.07Z"/><path class="cls-1" d="M443.26,140.14c-2.33,8.22,1.59,13.32,10.54,13.23,9.73-.09,19.46-.73,29.17-1.31,3.93-.23,4.83.3,4.32,4.16a106.2,106.2,0,0,1-2.3,12.53c-.39,1.5-1.79,3.52-3.12,3.89-15,4.16-30.19,6.92-45.82,3.54-17-3.68-24.25-17.21-22.72-33.12a128.78,128.78,0,0,1,5.3-26.76c5.79-18.11,18.81-27.83,37.71-30.21,8.18-1,16-.45,23.53,2.64,9.65,4,14.38,11.73,16.13,21.88,1.53,8.8-.68,17.21-1.76,25.74-.42,3.38-3.35,3.8-6.26,3.8C473.15,140.12,458.32,140.14,443.26,140.14Zm1.36-16.37c7.61,0,14.47.09,21.31-.12.89,0,2.29-1.48,2.48-2.47,1-5.13-1.32-10.38-5-12-4.7-2-11.49-.17-14.31,4.44C447.28,116.63,446.22,120.07,444.62,123.77Z"/><path class="cls-1" d="M579.38,171.38c-6.46,2.05-12.53,4.66-18.87,5.82-10.57,1.92-24.62-2.11-26-17.13-1.53-16,3.1-30.4,23.65-34.6,7.68-1.57,15.67-1.84,23.55-2.19,3.17-.14,4-1.21,4.12-4,.46-8.4.17-8.92-8.73-9.26-8.15-.32-16.36.55-24.53,1.12-4.6.33-5.62-.32-5-4.67s1.33-8.66,2.37-12.91c.34-1.42,1.6-3.43,2.79-3.71,15.82-3.7,31.73-6.28,47.78-1.24,11.76,3.69,16.85,14.1,15.22,25.85-2.68,19.27-5.87,38.46-8.81,57.68-.42,2.72-1.74,4.1-4.61,4.06-6.12-.08-12.26-.37-18.35.07C579.24,176.58,579.15,174,579.38,171.38Zm4-31.95c-3.84,0-7.62-.32-11.33.07-6.05.64-10.32,7.94-8.14,13.71.39,1,1.69,2.44,2.59,2.45a64.64,64.64,0,0,0,11.64-.76,5.25,5.25,0,0,0,3.37-3.3C582.49,147.74,582.81,143.73,583.42,139.43Z"/><path class="cls-1" d="M262.55,87.06c3.34,0,6.7,0,10.07,0,3.18-.06,4.11,1.49,3.58,4.44-.79,4.31-1.54,8.62-2.14,13-.41,2.92-1.89,4.46-4.83,4.49-3.5,0-7,0-10.73,0-2.4,15.45-4.73,30.7-7.14,45.94-.93,5.85-2.18,11.65-3,17.52-.39,2.81-1.74,3.77-4.35,3.75q-10.74-.07-21.47,0c-2.88,0-3.88-1-3.39-4,2.7-16.39,5.25-32.81,7.84-49.22,2.15-13.62,4.13-27.26,6.5-40.85a54.14,54.14,0,0,1,3.94-13.16c4.35-9.49,12.68-13.28,22.55-13.77a127.35,127.35,0,0,1,16.66.76c4,.33,4.68,1.65,3.93,5.66-.72,3.8-1.37,7.62-1.82,11.46-.32,2.75-1.89,3.76-4.35,3.9-1,.06-2.08,0-3.12,0C263.81,76.9,262,78.93,262.55,87.06Z"/><path class="cls-1" d="M707.55,146.48c1-13.07,1.91-26.22,7.91-38.26,8.76-17.57,26.09-24.48,43.91-22.25,4.35.55,8.68,1.2,13,1.87,2.91.46,4.55,1.34,3.47,5.13a85.08,85.08,0,0,0-2.41,14.87c-.33,3.24-2,3.72-4.7,3.5-4.53-.35-9.06-.74-13.6-.8-9.29-.13-12.64,2.16-14.62,11.33a183.5,183.5,0,0,0-3.11,22.92c-.43,5,2.78,8,7.87,7.85,6-.11,11.93-.45,17.89-.76,2.1-.11,3.37.6,3,2.85-.89,5.59-1.75,11.2-3,16.73-.3,1.33-1.73,3.18-2.92,3.44-10.5,2.25-21,4-31.83,1.63-12.65-2.78-20.66-12.89-20.92-26.15C707.53,149.08,707.55,147.78,707.55,146.48Z"/><path class="cls-1" d="M509.74,176.12c-3.38,0-6.76-.1-10.14,0-2.85.12-4.18-.92-3.74-3.87,1.18-7.89,2.28-15.79,3.51-23.67,1.93-12.35,3.93-24.68,5.91-37s4-24.9,6-37.35c.63-3.93,1.42-7.85,1.78-11.81.28-3,1.78-4.6,4.63-4.65,7.28-.13,14.56-.08,21.85-.06,3,0,3.67,1.93,3.27,4.46-1.14,7.24-2.35,14.47-3.51,21.71q-2.55,16-5.06,32.07-2.9,18.31-5.76,36.62c-.94,6-2,11.94-2.81,17.93-.61,4.4-1.75,5.58-6.13,5.59Z"/><path class="cls-1" d="M310.15,93.55a29.49,29.49,0,0,1,19.2-7.84c4.29-.22,5.31.34,4.82,4.48-.66,5.5-1.57,11-2.47,16.46-.35,2.14-1.45,3.17-4,3.16a61.46,61.46,0,0,0-12,1c-7.93,1.6-7.84,2-9,9.87-2.46,17.09-5.16,34.13-7.87,51.18-.45,2.8-2,4.42-5.37,4.3-6.63-.25-13.27-.06-19.91-.08-4,0-4.85-.88-4.26-4.94,1.26-8.66,2.7-17.3,4.1-25.94,1.72-10.69,3.51-21.36,5.21-32.05,1.15-7.25,2.14-14.53,3.29-21.78.49-3.08,2.1-4.61,5.59-4.43,5.71.29,11.45.07,17.17.08C311.09,87.06,311.09,87.06,310.15,93.55Z"/><path class="cls-1" d="M94.82,133.89c.3-.47.6-.93.91-1.39l36.05,39.07q-25.53,25.13-51.06,50.24c-2.43,2.39-5,4.6-7.54,6.89L72.07,228c.86-3.72,1.69-7.45,2.6-11.16q8.92-36.52,17.87-73a20.09,20.09,0,0,0,.29-2.7Q93.82,137.47,94.82,133.89Z"/><path class="cls-1" d="M897.84,87.24c-.81,5.78-1.4,10.57-2.16,15.34-1.7,10.8-3.53,21.58-5.23,32.38-1.92,12.09-3.73,24.2-5.63,36.29-.57,3.56-2.36,5.22-6.37,5-6.22-.39-12.48-.1-18.73-.11-4.54,0-5-.31-4.4-5,1.14-8.68,2.5-17.33,3.9-26,1.47-9.15,3.06-18.28,4.69-27.4a5.26,5.26,0,0,1,1.52-2.87C875.92,105.87,886.46,96.92,897.84,87.24Z"/><path class="cls-1" d="M305.25.26l1.43.28a.83.83,0,0,0-.06.44l-27,7.09q-25.5,6.74-51,13.49c-9.62,2.56-19.21,5.2-28.82,7.81l-.94.49,0-.07a8.48,8.48,0,0,1-2.45-1.55Q188,16.87,179.62,5.39c-1.07-1.46-2-3-3.22-5,29.57,0,58.32,0,87.08,0C277.41.36,291.33.3,305.25.26Z"/><path class="cls-1" d="M173.44,2.65l20,28-50.59-3-.12-.07a3.2,3.2,0,0,0-.11-.69l.15-.21c.22-.48.43-.95.65-1.42l.14-.17,9.57-8.3,10-9.39,1.61-1.57v0a49.26,49.26,0,0,1,4-3,29.81,29.81,0,0,1,3.71-1.72Z"/><path class="cls-1" d="M53.25,0l68.22,26c-7.89,0-16,.19-24.09-.05-9.6-.28-19.18-1.06-28.78-1.34-3.19-.09-5.1-.75-6.37-4.07C59.71,13.93,56.58,7.53,53.25,0Z"/><path class="cls-1" d="M948.29,88.91,898.93,116.5c1-6.39,1.82-11.93,2.7-17.48.34-2.16.74-4.31,1.14-6.47,1-5.48,1-5.5,6.66-5.5q17.34,0,34.67,0a28.38,28.38,0,0,1,3.85.5Z"/><path class="cls-1" d="M193.53,54.18c.52-1.32,1-2.64,1.54-4C194.56,51.54,194.05,52.86,193.53,54.18Z"/><path class="cls-1" d="M164.74,5.88l-1.61,1.57Z"/><path class="cls-1" d="M143.39,25.31c-.22.47-.43.94-.65,1.42C143,26.25,143.17,25.78,143.39,25.31Z"/><path class="cls-1" d="M198.86,29.86l.94-.49Z"/><path class="cls-1" d="M193.11,55l.39-.69Z"/><path class="cls-1" d="M99.86,102.78l.67-.86Z"/></g></g></svg>