<svg xmlns="http://www.w3.org/2000/svg" viewBox="0 0 988.9 261.31"><defs><style>.cls-1{fill:#f4f4f4;}</style></defs><g id="Layer_2" data-name="Layer 2"><g id="Layer_1-2" data-name="Layer 1"><path class="cls-1" d="M988.74,130.77c0,36.58-.28,73.16.14,109.73.16,13.47-10.4,20.83-20.69,20.81q-109.74-.21-219.47-.08c-11.44,0-19.76-8.2-19.77-19.66q0-110.9,0-221.81C729,8.24,736.48.7,748.24.13c2.34-.11,4.69,0,7,0C826.08.09,896.9.18,967.71,0,980.59,0,989,9,988.9,21,988.45,57.61,988.74,94.19,988.74,130.77ZM829.5,100.61a14.79,14.79,0,0,0-.31,2.06q-.11,56.4-.23,112.82c0,2.9,1,3.83,3.88,3.8,10.41-.13,20.82-.2,31.23,0,3.68.08,4.89-.89,4.85-4.75-.19-20.3-.1-40.6-.08-60.9,0-7.14,1.78-13.57,7.1-18.76,10.22-10,27.35-6.49,31.78,6.83a44.44,44.44,0,0,1,2,13.39c.21,20,.15,40.08,0,60.12,0,3.13,1,4.07,4,4q16.2-.16,32.41,0c2.88,0,3.84-1,3.81-3.9-.29-24.85-.16-49.7-.85-74.53a46.44,46.44,0,0,0-10.25-27.73c-9.13-11.53-21.55-15.72-35.8-15.5-11.13.18-20.92,3.72-28.69,12-1.83,1.93-3.42,4.09-5.74,6.9V100.61Zm-21.62,0c-1.61-.11-2.74-.26-3.88-.26-10.67,0-21.35.1-32-.08-3.26-.06-4.23,1-4.22,4.19q.13,55.26,0,110.51c0,3.22,1.06,4.32,4.27,4.28,10.54-.14,21.09-.19,31.62,0,3.57.07,4.3-1.24,4.29-4.54-.11-35.92-.07-71.85-.07-107.77Zm2.45-36c.1-12.6-8.67-21.14-21.83-21.28S765.63,52,765.67,64.23c0,11.85,9.49,20.7,22.23,20.78S810.24,76.51,810.33,64.63Z"/><path class="cls-1" d="M649.9,106.73V47.66h39.47V218.51h-34c-.53-5.46-1.07-11.09-1.67-17.19a11.52,11.52,0,0,0-1.79,1.49c-12.38,17-29.64,21.59-49.08,17.65-22.68-4.59-35.62-20.3-41-41.88-5.42-21.86-3.51-43.26,9.59-62.46,14.19-20.78,42.42-29,65.1-19.24a36.35,36.35,0,0,1,7.05,4.11A79.57,79.57,0,0,1,649.9,106.73Zm.32,49.71-.35,0c0-3.38,0-6.77,0-10.15-.12-10.6-6.87-20-16.38-22.81a24.82,24.82,0,0,0-27.88,9.69c-3.91,5.77-5.65,12.27-6.25,19-1,10.76.3,21.17,7.28,29.93,6.47,8.14,15.28,10.66,25.18,8.3s15.76-8.82,17.27-18.86C649.84,166.58,649.87,161.49,650.22,156.44Z"/><path class="cls-1" d="M446.24,218.85c-16.24,0-31.45.07-46.66-.13-1.21,0-2.74-1.71-3.53-3-9.27-15.06-18.43-30.18-27.62-45.29-.33-.54-.69-1.06-1.34-2-3.15,3.95-6.24,7.59-9,11.45-.74,1-.72,2.71-.72,4.09-.06,10.41-.13,20.83,0,31.24,0,2.93-.85,3.79-3.76,3.75-10.68-.16-21.35-.06-32-.07-1,0-2-.14-3.34-.23V47.7h39V144l.76.14q9.52-13.45,19-26.92c4.6-6.46,9.2-12.93,14-19.28a5.5,5.5,0,0,1,3.65-2.14c14.32-.15,28.64-.09,42.95-.07a10.87,10.87,0,0,1,1.74.47l-44.74,49.37Z"/><path class="cls-1" d="M540.66,188c1.72,8.59,3.38,16.84,5.18,25.82-4.62,1.36-9.23,3-14,4.07-18.22,4-36.5,5.3-54.85.79-24.64-6.05-40.48-23.8-43.7-49-2.86-22.34,2.05-42.41,17.72-59.12,10.67-11.37,24.33-16.57,39.61-17.76A64.43,64.43,0,0,1,518,96.17a48.13,48.13,0,0,1,28.28,26.39c6.74,14.92,8,30.49,5.22,46.82H470.07a21.45,21.45,0,0,0,9.51,16.56c6.24,4.43,13.36,6.35,20.87,6.74,12.94.67,25.72-.31,38.14-4.37A15.86,15.86,0,0,1,540.66,188Zm-24.38-45.31c-.52-9-2.69-17.18-10.88-21.76-8-4.45-16.42-4-24,1.07-7.16,4.8-10.49,12-11.39,20.69Z"/><path class="cls-1" d="M262.5,218.58v-4.49c0-19.4.06-38.79-.07-58.18a53.28,53.28,0,0,0-1.33-12c-1.66-7-5.48-12.43-12.9-14.2-7.73-1.84-14.75-.31-20.48,5.48a23.05,23.05,0,0,0-6.67,17q.06,30.65,0,61.3v5H182.18V101.05h38.71V116l1.44,1.17a9,9,0,0,1,.84-2.5c10.92-15.22,26.27-18.69,43.57-15.55,16.88,3.06,27.44,13.76,31.95,30a86.72,86.72,0,0,1,3,21.51c.38,21.6.14,43.21.13,64.81,0,1-.17,2-.27,3.19Z"/><path class="cls-1" d="M0,218.6V47.7H39V183.3h69.26v35.3Z"/><path class="cls-1" d="M124.29,101H163.4c.08,1.61.21,3,.21,4.4,0,36.32,0,72.64.09,109,0,3.59-1,4.64-4.55,4.56-10.28-.23-20.57-.08-30.86-.09-1.26,0-2.53-.12-4-.19Z"/><path class="cls-1" d="M144.16,84.72c-8.88-.31-15.81-3.17-19.79-10.67-3.73-7-3.51-14.32.92-21.1,5.93-9.09,20.58-12,30.83-6.19,9,5.07,12.64,16.78,7.91,26.46C159.88,81.7,152.33,84.48,144.16,84.72Z"/></g></g></svg>