<svg xmlns="http://www.w3.org/2000/svg" xmlns:xlink="http://www.w3.org/1999/xlink" viewBox="0 0 534.53 114.06"><defs><style>.cls-1{fill:none;}.cls-2{clip-path:url(#clip-path);}.cls-3{fill:#00a4d7;}.cls-4{fill:#00a3d7;}.cls-5{fill:#00a2d7;}.cls-6{fill:#00a1d6;}.cls-7{fill:#00bbe0;}.cls-8{fill:#00bae0;}.cls-9{fill:#00b9df;}.cls-10{fill:#00b8df;}.cls-11{fill:#00b7de;}.cls-12{fill:#00b6de;}.cls-13{fill:#00b5de;}.cls-14{fill:#00b4dd;}.cls-15{fill:#00b3dd;}.cls-16{fill:#00b2dd;}.cls-17{fill:#00b0dc;}.cls-18{fill:#00afdc;}.cls-19{fill:#00aedb;}.cls-20{fill:#00addb;}.cls-21{fill:#00acdb;}.cls-22{fill:#00abda;}.cls-23{fill:#00aada;}.cls-24{fill:#00a9d9;}.cls-25{fill:#00a8d9;}.cls-26{fill:#00a7d9;}.cls-27{fill:#00a6d8;}.cls-28{fill:#00a5d8;}.cls-29{fill:#00a0d6;}.cls-30{fill:#009fd5;}.cls-31{fill:#00c6e4;}.cls-32{fill:#00c5e4;}.cls-33{fill:#00c4e4;}.cls-34{fill:#00c3e3;}.cls-35{fill:#00c2e3;}.cls-36{fill:#00c1e2;}.cls-37{fill:#00c0e2;}.cls-38{fill:#00bfe2;}.cls-39{fill:#00bee1;}.cls-40{fill:#00bde1;}.cls-41{fill:#00bce0;}.cls-42{fill:#009ed5;}.cls-43{fill:#009dd5;}.cls-44{fill:#009cd4;}.cls-45{fill:#009bd4;}.cls-46{fill:#009ad4;}</style><clipPath id="clip-path"><path class="cls-1" d="M75,91.88a5.93,5.93,0,0,0,4.19,1.73h.46a5.92,5.92,0,1,0-2.5-11.46L40.7,38.61,37.37,41.4,73.9,85.05A5.91,5.91,0,0,0,75,91.91Zm2-6.33.43-.36A3,3,0,0,1,79,84.67h.23a3,3,0,1,1-3,3A3.06,3.06,0,0,1,77,85.56Z"/></clipPath></defs><g id="Layer_2" data-name="Layer 2"><g id="Layer_1-2" data-name="Layer 1"><path class="cls-1" d="M75.48,60.72a1.36,1.36,0,0,0-.84-.27.88.88,0,0,0-.23,0,1.38,1.38,0,0,0-.94.57,1.43,1.43,0,0,0,.32,2,1.4,1.4,0,0,0,1.07.26,1.45,1.45,0,0,0,.94-.58h0A1.43,1.43,0,0,0,75.48,60.72Z"/><path class="cls-1" d="M46.45,92.86a3,3,0,0,0,3.26-2.75v0A3,3,0,0,0,47,86.8h-.26a3,3,0,0,0-.22,6Z"/><path class="cls-1" d="M74.47,29.86H74.3a1.88,1.88,0,1,0,1.61,3.08,1.85,1.85,0,0,0,.43-1.37,1.89,1.89,0,0,0-.65-1.31A1.92,1.92,0,0,0,74.47,29.86Z"/><path class="cls-1" d="M22.75,28.2,19.2,23.31a53.7,53.7,0,0,0-8.49,14.63l4.4,5.11A47.61,47.61,0,0,1,22.75,28.2Z"/><path class="cls-1" d="M39.44,62.3a1.45,1.45,0,0,0,2-.32h0a1.41,1.41,0,1,0-2,.32Z"/><path class="cls-1" d="M44.23,34.75a1.88,1.88,0,1,0-.41-2.63v0A1.88,1.88,0,0,0,44.23,34.75Z"/><path class="cls-1" d="M97.08,26.38a48.36,48.36,0,0,1,6,9,5.75,5.75,0,0,1,7.24,2l.14.22a53.79,53.79,0,0,0-9.28-15.36Z"/><path class="cls-1" d="M77.25,92a3,3,0,0,0,.46-6h-.24a3,3,0,0,0-1.51.41l-.46.33A3,3,0,0,0,75.17,91,3.07,3.07,0,0,0,77.25,92Z"/><path class="cls-1" d="M100.59,21.55A53.37,53.37,0,0,0,25.25,17a54.53,54.53,0,0,0-5.12,5.19L23.66,27a47.55,47.55,0,0,1,72.45-1.73l4-4.18Z"/><path class="cls-1" d="M106.07,37.73a3.43,3.43,0,0,0-.55-.06,2.82,2.82,0,0,0-1.24.29l-.35.2a2.87,2.87,0,0,0-1.18,1.74V40a2.78,2.78,0,0,0,0,.91,2.88,2.88,0,0,0,1.13,1.92,2.73,2.73,0,0,0,1.15.52,2.87,2.87,0,0,0,1.27,0l.13-.05a2.61,2.61,0,0,0,.74-.34,2.85,2.85,0,0,0-1-5.16Z"/><g class="cls-2"><polygon class="cls-3" points="77.61 84.77 76.03 86.82 75.88 84.9 77.61 84.77"/><polygon class="cls-4" points="81.17 84.5 76.59 90.42 76.28 90.19 76.03 86.82 77.61 84.77 81.17 84.5"/><polygon class="cls-5" points="81.19 84.5 82.08 85.19 82.25 87.42 79.68 90.73 77.23 90.92 76.59 90.42 81.17 84.5 81.19 84.5"/><polygon class="cls-6" points="79.68 90.73 82.25 87.42 82.49 90.52 79.68 90.73"/><polygon class="cls-7" points="39.74 38.65 37.39 41.69 37.17 38.85 39.74 38.65"/><polygon class="cls-8" points="41.65 38.5 42.62 39.25 37.69 45.63 37.39 41.69 39.74 38.65 41.65 38.5"/><polygon class="cls-9" points="42.62 39.25 44.71 40.87 37.99 49.57 37.69 45.63 42.62 39.25"/><polygon class="cls-10" points="44.71 40.87 46.8 42.49 38.29 53.5 37.99 49.57 44.71 40.87"/><polygon class="cls-11" points="46.8 42.49 48.89 44.1 38.59 57.43 38.29 53.5 46.8 42.49"/><polygon class="cls-12" points="48.89 44.1 50.99 45.72 38.9 61.37 38.59 57.43 48.89 44.1"/><polygon class="cls-13" points="50.99 45.72 53.08 47.33 39.21 65.28 39.19 65.27 38.9 61.37 50.99 45.72"/><rect class="cls-14" x="35.84" y="55.79" width="22.69" height="2.64" transform="translate(-26.86 59.52) rotate(-52.3)"/><rect class="cls-15" x="37.94" y="57.41" width="22.69" height="2.64" transform="translate(-27.33 61.81) rotate(-52.3)"/><rect class="cls-16" x="40.03" y="59.02" width="22.69" height="2.64" transform="translate(-27.79 64.09) rotate(-52.3)"/><rect class="cls-17" x="42.12" y="60.64" width="22.69" height="2.64" transform="translate(-28.26 66.37) rotate(-52.3)"/><rect class="cls-18" x="44.21" y="62.26" width="22.69" height="2.64" transform="translate(-28.73 68.65) rotate(-52.3)"/><rect class="cls-19" x="46.3" y="63.87" width="22.69" height="2.64" transform="translate(-29.19 70.94) rotate(-52.3)"/><rect class="cls-20" x="48.39" y="65.5" width="22.69" height="2.64" transform="translate(-29.66 73.22) rotate(-52.3)"/><rect class="cls-21" x="50.48" y="67.11" width="22.69" height="2.64" transform="translate(-30.13 75.51) rotate(-52.3)"/><rect class="cls-22" x="52.58" y="68.73" width="22.69" height="2.64" transform="translate(-30.59 77.79) rotate(-52.3)"/><rect class="cls-23" x="54.67" y="70.34" width="22.69" height="2.64" transform="translate(-31.06 80.07) rotate(-52.3)"/><rect class="cls-24" x="56.76" y="71.97" width="22.69" height="2.64" transform="translate(-31.53 82.36) rotate(-52.3)"/><rect class="cls-25" x="58.86" y="73.58" width="22.69" height="2.64" transform="matrix(0.61, -0.79, 0.79, 0.61, -31.99, 84.64)"/><rect class="cls-26" x="60.95" y="75.2" width="22.69" height="2.64" transform="translate(-32.46 86.92) rotate(-52.3)"/><rect class="cls-27" x="63.04" y="76.81" width="22.69" height="2.64" transform="translate(-32.93 89.21) rotate(-52.3)"/><polygon class="cls-28" points="82.37 69.97 83.97 71.21 84.04 72.14 70.59 89.54 68.5 87.92 82.37 69.97"/><polygon class="cls-3" points="84.34 76.07 72.68 91.16 70.59 89.54 84.04 72.14 84.34 76.07"/><polygon class="cls-4" points="84.64 80 74.77 92.77 72.68 91.16 84.34 76.07 84.64 80"/><polygon class="cls-5" points="84.94 83.94 77.34 93.77 76.18 93.86 74.77 92.77 84.64 80 84.94 83.94"/><polygon class="cls-6" points="85.24 87.87 80.89 93.5 77.34 93.77 84.94 83.94 85.24 87.87"/><polygon class="cls-29" points="85.54 91.8 84.44 93.23 80.89 93.5 85.24 87.87 85.54 91.8"/><polygon class="cls-30" points="84.44 93.23 85.54 91.8 85.65 93.14 84.44 93.23"/></g><path class="cls-1" d="M100.16,21.11l.45.44c-.32-.37-.66-.72-1-1.08h0c-.6-.65-1.22-1.3-1.85-1.88h0c-.66-.62-1.31-1.21-2-1.79h0c-.66-.59-1.35-1.15-2-1.7h0c-.69-.54-1.4-1.08-2.12-1.59h0c-.72-.52-1.46-1-2.21-1.5h0c-.76-.48-1.52-.95-2.3-1.4h0c-.79-.45-1.59-.88-2.39-1.3h0c-.82-.42-1.66-.81-2.5-1.19h0c-.85-.37-1.72-.73-2.61-1.07h0c-.89-.34-1.79-.66-2.71-1h0c-.92-.3-1.86-.58-2.82-.82h0c-1-.26-2-.49-2.94-.66h0c-1-.21-2-.38-3.08-.53h0c-1.08-.15-2.16-.26-3.27-.35h0c-1.13-.09-2.27-.14-3.42-.16h-.8c-.94,0-1.89,0-2.82.07h0c-1.31.07-2.61.19-3.87.35h0c-1.42.18-2.82.41-4.19.7h0a47.54,47.54,0,0,0-4.63,1.18h0a52.6,52.6,0,0,0-5.3,2h0a53,53,0,0,0-6.59,3.35h0a53.73,53.73,0,0,0-13.1,11l1.4,2h0l1.59,2.18h0l.54.75A48,48,0,0,1,35.35,16.73h0a48.27,48.27,0,0,1,6.78-3.59h0a48.57,48.57,0,0,1,5.23-1.87h0c1.49-.43,3-.79,4.53-1.07h0c1.31-.25,2.7-.44,4.08-.58h0c1.24-.12,2.5-.2,3.76-.22h.89c.88,0,1.75,0,2.61.08h0c1.11,0,2.2.16,3.27.29h0c1,.14,2.09.29,3.12.5h0c1,.19,2,.41,2.95.65h0c1,.25,1.89.52,2.82.82h0c.9.3,1.8.65,2.69,1h0c.86.34,1.72.72,2.56,1.11h0c.82.39,1.64.8,2.45,1.23h0q1.18.64,2.34,1.35h0c.76.47,1.51,1,2.24,1.47h0c.73.5,1.44,1,2.14,1.57h0c.69.55,1.37,1.11,2,1.69h0c.65.58,1.31,1.18,2,1.79h0c.65.62,1.25,1.25,1.84,1.9h0l.43.47,1-1,2-2.13Z"/><path class="cls-1" d="M74.15,60.53h0a1.42,1.42,0,0,0-.65.51,1.34,1.34,0,0,0-.23.5h0a1.82,1.82,0,0,0,0,.57,1.45,1.45,0,0,0,1.65,1.19,1.42,1.42,0,0,0,.53-.2h0a1.35,1.35,0,0,0,.41-.38h0a1.28,1.28,0,0,0,.11-.2h0a1.43,1.43,0,0,0-.43-1.8,1.37,1.37,0,0,0-.85-.27.81.81,0,0,0-.22,0A1.16,1.16,0,0,0,74.15,60.53Z"/><path class="cls-1" d="M39.12,60.3a1.44,1.44,0,0,0,.32,2,1.41,1.41,0,0,0,.81.27h.26a1.38,1.38,0,0,0,.94-.57h0a1.45,1.45,0,0,0,.26-1h0v0a1.41,1.41,0,0,0-.57-.94,1.44,1.44,0,0,0-2,.32h0Z"/><path class="cls-1" d="M43.66,89.61a2.9,2.9,0,0,0,0,.72h0a3,3,0,0,0,1.59,2.19h0a3,3,0,0,0,1.17.34,3,3,0,0,0,2.75-4.69h0a3,3,0,0,0-2.29-1.35h-.24a3,3,0,0,0-3,2.8Z"/><path class="cls-1" d="M107.89,38.93a2.82,2.82,0,0,0-1.82-1.2,3.43,3.43,0,0,0-.55-.06h0a2.89,2.89,0,0,0-1.19.28,2.5,2.5,0,0,0-.35.21,2.82,2.82,0,0,0-1.18,1.73V40a2.92,2.92,0,0,0,0,.78h0v.14a2.93,2.93,0,0,0,1.13,1.92,3.13,3.13,0,0,0,.36.22h0a2.51,2.51,0,0,0,.79.29,2.73,2.73,0,0,0,1.27,0l.13-.05a2.58,2.58,0,0,0,.74-.33,2.84,2.84,0,0,0,.78-4h0Z"/><path class="cls-1" d="M73,30.54a1.89,1.89,0,0,0,.24,2.61,1.67,1.67,0,0,0,.4.25h0a1.75,1.75,0,0,0,1,.19A1.9,1.9,0,0,0,76,32.93a1.85,1.85,0,0,0,.15-2.18h0a1.78,1.78,0,0,0-.39-.47,1.9,1.9,0,0,0-1.21-.43h-.16A1.89,1.89,0,0,0,73,30.54Z"/><path class="cls-1" d="M102.07,33.55h0c.34.59.65,1.19,1,1.79a6.11,6.11,0,0,1,1.37-.45h0a5.8,5.8,0,0,1,3.28.32h0a5.76,5.76,0,0,1,2.16,1.56h0a4.53,4.53,0,0,1,.43.55l.14.22c-.13-.32-.26-.65-.4-1h0c-.37-.89-.76-1.77-1.18-2.61h0c-.41-.86-.84-1.69-1.31-2.52h0c-.44-.81-.91-1.61-1.39-2.4h0q-.72-1.17-1.5-2.28h0c-.51-.75-1-1.47-1.59-2.19h0c-.55-.71-1.11-1.4-1.68-2.08h0l-.24-.29-.55.56-3.52,3.65.36.45h0a.9.9,0,0,1,.15.19c.52.65,1,1.31,1.5,2h0c.53.72,1,1.47,1.54,2.23h0A23.86,23.86,0,0,1,102.07,33.55Z"/><path class="cls-1" d="M43.81,32.12a1.89,1.89,0,0,0,.28,2.52h0l.14.11a1.88,1.88,0,0,0,2.38-2.9h0l-.17-.14a1.88,1.88,0,0,0-2.61.41Z"/><path class="cls-31" d="M20.15,16.91a57.51,57.51,0,0,0-7,8.64l7-7.77Z"/><polygon class="cls-31" points="2.15 35.56 0 39.61 0.21 39.85 3.1 36.65 2.15 35.56"/><path class="cls-31" d="M24.27,13.2l.17-.19a56.59,56.59,0,0,0-4.29,3.92v.84Z"/><polygon class="cls-31" points="24.44 13.01 24.44 13.01 24.27 13.2 24.44 13.01"/><path class="cls-32" d="M20.15,17.76h0l-7,7.79A56.06,56.06,0,0,0,8.1,34.92l.07.08,12-13.27Z"/><polygon class="cls-32" points="3.1 36.65 0.21 39.85 1.95 41.86 4.85 38.66 3.1 36.65"/><polygon class="cls-32" points="20.15 17.75 20.15 17.75 24.27 13.2 20.15 17.75"/><path class="cls-32" d="M20.15,17.76v3.91l1.45-1.6L33.55,6.84A57.24,57.24,0,0,0,24.44,13l-.17.19Z"/><polygon class="cls-32" points="33.55 6.86 33.55 6.86 21.6 20.1 33.55 6.86"/><path class="cls-33" d="M20.15,21.7h0L8.17,35l1.74,2,2.29-2.55a54.2,54.2,0,0,1,7-11.14l.95,1.31V21.69Z"/><polygon class="cls-33" points="4.85 38.66 1.95 41.86 3.7 43.88 6.59 40.67 4.85 38.66"/><polygon class="cls-33" points="20.62 25.13 20.31 24.84 20.56 25.19 20.62 25.13 20.62 25.13"/><polygon class="cls-33" points="20.15 21.7 20.15 21.7 21.6 20.1 20.15 21.7"/><path class="cls-33" d="M20.15,21.7v.46a54.15,54.15,0,0,1,13.1-11L39.71,4a55.71,55.71,0,0,0-6.16,2.89l-12,13.26Z"/><polygon class="cls-33" points="21.56 24.09 20.15 22.16 20.15 24.63 20.31 24.84 20.62 25.13 21.56 24.09"/><polygon class="cls-33" points="20.62 25.11 21.55 24.08 21.55 24.08 20.62 25.11"/><polygon class="cls-33" points="33.25 11.13 39.71 3.98 39.71 3.98 33.25 11.13 33.25 11.13"/><polygon class="cls-34" points="22.59 26.9 20.62 25.13 20.56 25.19 22.15 27.38 22.59 26.9 22.59 26.9"/><path class="cls-34" d="M43.66,3.56l1.2-1.31c-1.37.4-2.72.85-4,1.31Z"/><path class="cls-34" d="M10.72,38c.43-1.18.93-2.34,1.48-3.48L9.91,37Z"/><path class="cls-34" d="M6.59,40.67,3.7,43.88l1.16,1.34c-.12.55-.22,1.11-.33,1.67l3.81-4.21Z"/><polygon class="cls-34" points="21.56 24.09 20.62 25.13 22.59 26.9 23.14 26.28 21.56 24.09"/><path class="cls-34" d="M39.86,7.78l3.81-4.22H40.82L39.72,4l-6.45,7.18A54.54,54.54,0,0,1,39.86,7.78Z"/><rect class="cls-34" x="41.75" y="2.83" height="5.69"/><polygon class="cls-34" points="22.59 26.89 23.15 26.27 23.15 26.27 22.59 26.89"/><path class="cls-35" d="M8.34,42.68,4.53,46.89C4.25,48.43,4,50,3.88,51.56l6.2-6.87Z"/><path class="cls-35" d="M26,27H22.72l-.13-.12-.44.48.6.82A48.21,48.21,0,0,0,17.91,36L26,27Z"/><path class="cls-35" d="M47.21,3.56h0l2.22-2.45c-1.55.3-3.08.67-4.57,1.11L43.65,3.53Z"/><polygon class="cls-35" points="22.59 26.9 22.72 27.02 23.69 27.02 23.14 26.28 22.59 26.9"/><path class="cls-35" d="M23.68,27H26L35.4,16.65A48.13,48.13,0,0,0,23.68,27Z"/><path class="cls-35" d="M45.14,5.86l2.07-2.3H43.66l-3.8,4.22A53.58,53.58,0,0,1,45.14,5.86Z"/><rect class="cls-35" x="30.72" y="14.85" height="13.98"/><polygon class="cls-35" points="45.14 5.85 47.21 3.56 47.21 3.56 45.14 5.85"/><path class="cls-36" d="M17.91,36a46.64,46.64,0,0,0-2.79,7h0L19,38.65a46,46,0,0,1,5-8.64l1.25,1.71,1-1.1L25,28.81c.49-.65,1-1.23,1.53-1.82H26Z"/><path class="cls-36" d="M10.08,44.69,3.89,51.56c-.14,1.39-.23,2.8-.26,4.23l3.84-4.25c.1-1,.23-2,.38-2.88l1.08,1.25,2.9-3.2Z"/><path class="cls-36" d="M50.78,3.56h0L53.6.43c-1.41.18-2.8.39-4.17.65L47.21,3.53Z"/><path class="cls-36" d="M35.4,16.65,26,27h.5a46.16,46.16,0,0,1,10.05-8.54l.25.54,5.31-5.87A46.93,46.93,0,0,0,35.4,16.65Z"/><path class="cls-36" d="M49.77,4.65l1-1.12H47.21l-2.07,2.3C46.65,5.39,48.2,5,49.77,4.65Z"/><polygon class="cls-36" points="42.13 13.13 36.82 19.02 36.82 19.02 42.13 13.13 42.13 13.13"/><polygon class="cls-36" points="49.77 4.68 50.78 3.56 50.78 3.56 49.77 4.68 49.77 4.68"/><polygon class="cls-37" points="26.92 33.94 27.91 32.84 26.32 30.65 25.33 31.75 26.92 33.94"/><path class="cls-37" d="M3.62,57c0,.89,0,1.77.06,2.65l3.51-3.92c0-1.42.13-2.84.28-4.25L3.63,55.76C3.62,56.2,3.62,56.61,3.62,57Z"/><polygon class="cls-37" points="11.83 46.7 8.93 49.91 10.68 51.92 13.57 48.72 11.83 46.7"/><path class="cls-37" d="M16.81,45a45.84,45.84,0,0,1,2.26-6.33l-3.92,4.36Z"/><path class="cls-37" d="M54.34,3.56h0L57.49.08c-1.31.07-2.62.19-3.88.34L50.79,3.55Z"/><path class="cls-37" d="M54,4l.38-.42H50.78l-1,1.07C51.15,4.39,52.54,4.16,54,4Z"/><path class="cls-37" d="M42.13,13.14,36.82,19,38,21.63l2.12-2.34L39.08,17a43.44,43.44,0,0,1,5.33-2.44l3-3.3A47.6,47.6,0,0,0,42.13,13.14Z"/><polygon class="cls-37" points="53.96 3.98 54.34 3.56 54.34 3.56 53.96 3.98 53.96 3.98"/><polygon class="cls-37" points="47.38 11.27 44.41 14.56 44.41 14.56 47.38 11.27 47.38 11.27"/><polygon class="cls-37" points="38.02 21.62 40.13 19.28 40.13 19.28 38.02 21.62"/><polygon class="cls-38" points="13.57 48.72 10.68 51.92 12.43 53.94 15.32 50.73 13.57 48.72"/><path class="cls-38" d="M3.94,63.31,7.2,59.68c0-.88-.06-1.76-.06-2.65V55.79L3.62,59.71C3.72,60.91,3.82,62.12,3.94,63.31Z"/><path class="cls-38" d="M57.91,3.56h0L61.11,0h-.46c-1.07,0-2.12,0-3.18.08L54.34,3.56Z"/><polygon class="cls-38" points="28.5 36.13 29.5 35.02 27.91 32.84 26.92 33.94 28.5 36.13"/><path class="cls-38" d="M47.38,11.26l-3,3.3a45.45,45.45,0,0,1,5-1.6l2.51-2.77C50.4,10.47,48.88,10.83,47.38,11.26Z"/><polygon class="cls-38" points="39.22 24.25 41.34 21.91 40.14 19.29 38.02 21.64 39.22 24.25"/><path class="cls-38" d="M57.83,3.63l.08-.07H54.34L54,4C55.24,3.82,56.53,3.7,57.83,3.63Z"/><polygon class="cls-38" points="57.82 3.61 57.89 3.53 57.89 3.53 57.82 3.61"/><polygon class="cls-38" points="49.4 12.96 51.91 10.18 51.91 10.18 49.4 12.96"/><path class="cls-39" d="M15.32,50.73l-2.89,3.2.65.75C13,55.46,13,56.24,13,57v.21l4.06-4.49Z"/><path class="cls-39" d="M4.44,66.73l3.1-3.44c-.13-1.19-.24-2.39-.3-3.61L4,63.31C4.09,64.46,4.25,65.6,4.44,66.73Z"/><polygon class="cls-39" points="30.09 38.31 31.09 37.21 29.5 35.02 28.5 36.13 30.09 38.31"/><path class="cls-39" d="M60.65,3.56h.81L64.55.13C63.42.06,62.27,0,61.11,0l-3.2,3.56Z"/><polygon class="cls-39" points="39.22 24.24 41.33 21.9 41.33 21.9 39.22 24.24"/><polygon class="cls-39" points="40.43 26.87 42.54 24.52 41.34 21.91 39.22 24.25 40.43 26.87"/><path class="cls-39" d="M60.65,3.56H57.91l-.08.07C58.79,3.59,59.71,3.56,60.65,3.56Z"/><path class="cls-39" d="M51.92,10.19,49.41,13c1.44-.36,2.89-.66,4.36-.88L56,9.61C54.62,9.75,53.26,9.94,51.92,10.19Z"/><polygon class="cls-39" points="61.45 3.57 61.46 3.56 61.46 3.56 61.45 3.57"/><polygon class="cls-39" points="56 9.61 53.77 12.08 53.77 12.08 56 9.61 56 9.61"/><polygon class="cls-39" points="40.42 26.85 42.53 24.51 42.53 24.51 40.42 26.85"/><path class="cls-40" d="M65,3.56h0L67.83.45C66.75.31,65.66.21,64.57.13L61.48,3.56Z"/><polygon class="cls-40" points="31.69 40.49 32.67 39.4 31.09 37.21 30.09 38.31 31.69 40.49"/><path class="cls-40" d="M15.18,57.11l.73.85,2.9-3.2-1.75-2L13,57.24c0,1.27.07,2.53.17,3.77l2-2.27C15.19,58.2,15.18,57.66,15.18,57.11Z"/><path class="cls-40" d="M5.09,70l3-3.26c-.21-1.12-.37-2.25-.51-3.38l-3.1,3.43C4.63,67.81,4.85,68.89,5.09,70Z"/><polygon class="cls-40" points="41.63 29.48 43.74 27.14 43.69 27.02 40.5 27.02 41.63 29.48"/><path class="cls-40" d="M56,9.61l-2.23,2.47c1.31-.2,2.62-.35,3.95-.43l2-2.25C58.49,9.42,57.24,9.5,56,9.61Z"/><path class="cls-40" d="M64.87,3.72,65,3.56H61.45C62.6,3.59,63.74,3.64,64.87,3.72Z"/><polygon class="cls-40" points="40.5 27.02 43.69 27.02 42.54 24.52 40.43 26.87 40.5 27.02"/><polygon class="cls-40" points="59.75 9.4 57.72 11.65 57.72 11.65 59.75 9.4 59.75 9.4"/><polygon class="cls-40" points="64.88 3.72 65.03 3.55 65.03 3.55 64.88 3.72"/><polygon class="cls-41" points="17.66 59.98 20.56 56.77 18.81 54.76 15.91 57.96 17.66 59.98"/><path class="cls-41" d="M68.59,3.56h0L71,1c-1-.19-2.08-.36-3.13-.49L65,3.57Z"/><path class="cls-41" d="M15.21,58.74l-2,2.27q.15,1.76.42,3.48l1.9-2.11C15.35,61.18,15.26,60,15.21,58.74Z"/><path class="cls-41" d="M42.19,30.7a.93.93,0,0,0-.13.15,4.08,4.08,0,0,0-.74,2.91l1.89-2.08h0v-.33h.3l2-2.17a4.84,4.84,0,0,0-.76,0l-.93-2.08-2.14,2.33Z"/><path class="cls-41" d="M5.9,73l2.84-3.15q-.39-1.58-.69-3.18l-3,3.26C5.33,71,5.6,72,5.9,73Z"/><polygon class="cls-41" points="33.27 42.68 34.27 41.59 32.67 39.4 31.69 40.49 33.27 42.68"/><path class="cls-41" d="M68.12,4.08l.47-.52H65l-.15.16C66,3.81,67.05,3.93,68.12,4.08Z"/><path class="cls-41" d="M60.65,9.38h-.9l-2,2.26c1-.06,2-.09,2.93-.09h.71l1.91-2.11C62.4,9.41,61.53,9.38,60.65,9.38Z"/><polygon class="cls-41" points="68.11 4.07 68.58 3.55 68.58 3.55 68.11 4.07"/><polygon class="cls-41" points="63.27 9.46 61.36 11.56 61.36 11.56 63.27 9.46 63.27 9.46"/><polygon class="cls-41" points="43.2 31.35 43.2 31.68 43.51 31.35 43.2 31.35"/><polygon class="cls-41" points="43.2 31.67 43.5 31.34 43.5 31.34 43.2 31.67"/><path class="cls-7" d="M15.49,62.38l-1.9,2.11c.17,1.09.39,2.18.65,3.26l1.81-2C15.8,64.63,15.63,63.51,15.49,62.38Z"/><path class="cls-7" d="M45.34,31.35H47l1-1.11a3.27,3.27,0,0,0-.35-.3,4.05,4.05,0,0,0-2.25-.76l-2,2.17Z"/><polygon class="cls-7" points="34.08 43.8 34.54 45.22 35.66 43.98 35.4 43.14 34.27 41.59 33.27 42.68 34.08 43.8"/><path class="cls-7" d="M43.21,34.84V31.68l-1.89,2.08a4.08,4.08,0,0,0,1.31,2.49l1-1.06Z"/><path class="cls-7" d="M6.83,75.92l2.74-3c-.3-1-.58-2-.83-3L5.9,73C6.18,74,6.5,75,6.83,75.92Z"/><polygon class="cls-7" points="19.41 61.99 22.3 58.78 20.56 56.77 17.66 59.98 19.41 61.99"/><path class="cls-7" d="M72.15,3.56h0l1.8-2c-1-.24-2-.45-3-.65L68.59,3.56Z"/><path class="cls-7" d="M63.27,9.46l-1.91,2.11c1.14,0,2.28.07,3.4.17l1.8-2A33,33,0,0,0,63.27,9.46Z"/><path class="cls-7" d="M71.2,4.61l1-1.05H68.59l-.47.52C69.16,4.23,70.18,4.4,71.2,4.61Z"/><polygon class="cls-7" points="64.59 12.51 66.39 10.53 66.39 10.53 64.59 12.51"/><polygon class="cls-7" points="71.19 4.6 72.14 3.55 72.14 3.55 71.19 4.6"/><path class="cls-7" d="M46.61,31.85l.45-.5H45.34a1.81,1.81,0,0,1,1.1.36Z"/><path class="cls-7" d="M43.6,35.19l.49-.55a1.89,1.89,0,0,1,1.25-3.27H43.51l-.3.34v3.16Z"/><path class="cls-8" d="M75.71,3.56h0l1.11-1.22c-.95-.28-1.91-.54-2.87-.77l-1.8,2Z"/><path class="cls-8" d="M7.89,78.69l2.66-3c-.35-.94-.68-1.89-1-2.86l-2.74,3C7.16,76.85,7.52,77.79,7.89,78.69Z"/><polygon class="cls-8" points="21.15 64 24.05 60.79 22.3 58.78 19.41 61.99 21.15 64"/><path class="cls-8" d="M47,31.35h.1l.3.26v3.27h0l1.89-2.1A4,4,0,0,0,48,30.27l-1,1.11Z"/><polygon class="cls-8" points="35.47 48.14 36.6 46.9 35.66 43.98 34.54 45.22 35.47 48.14"/><path class="cls-8" d="M47,35.34H43.77l-.18-.17h0l-1,1.06.32.26a4,4,0,0,0,2.33.81Z"/><path class="cls-8" d="M16,65.74l-1.8,2c.23,1,.51,2,.81,3l1.71-1.9C16.47,67.85,16.22,66.8,16,65.74Z"/><path class="cls-8" d="M74.15,5.3l1.56-1.73H72.15l-1,1C72.19,4.81,73.16,5,74.15,5.3Z"/><path class="cls-8" d="M66.56,9.75l-1.8,2c1.08.1,2.14.23,3.2.4l1.72-1.9C68.65,10,67.61,9.87,66.56,9.75Z"/><polygon class="cls-8" points="73.99 6.08 75.55 4.35 75.55 4.35 73.99 6.08"/><polygon class="cls-8" points="67.95 12.14 69.67 10.24 69.67 10.24 67.95 12.14"/><polygon class="cls-8" points="46.6 31.83 47.05 31.33 47.05 31.33 46.6 31.83"/><polygon class="cls-8" points="43.59 35.18 44.09 34.63 44.09 34.63 43.59 35.18"/><path class="cls-8" d="M46.86,34.33a1.88,1.88,0,0,1-2.61.42l-.14-.11-.49.55.18.17H47l.46-.51V31.58l-.3-.27H47l-.45.51A1.88,1.88,0,0,1,46.86,34.33Z"/><polygon class="cls-8" points="46.99 35.35 47.46 34.83 47.46 34.83 46.99 35.35"/><polygon class="cls-9" points="36.4 51.05 37.53 49.81 36.6 46.9 35.47 48.14 36.4 51.05"/><polygon class="cls-9" points="22.9 66.01 25.79 62.81 24.05 60.79 21.15 64 22.9 66.01"/><path class="cls-9" d="M79.27,3.56h0l.3-.33c-.9-.32-1.83-.62-2.75-.89L75.71,3.56Z"/><path class="cls-9" d="M16.74,68.88,15,70.78c.29,1,.62,1.93,1,2.88l1.65-1.83C17.32,70.86,17,69.88,16.74,68.88Z"/><path class="cls-9" d="M9.06,81.34l2.62-2.88c-.4-.9-.77-1.8-1.11-2.72l-2.67,3C8.27,79.59,8.65,80.47,9.06,81.34Z"/><path class="cls-9" d="M47.47,35.34H47l-1.76,2h0a4,4,0,0,0,4.06-4,4.19,4.19,0,0,0,0-.5l-1.89,2.1Z"/><path class="cls-9" d="M77,6.11l2.3-2.55H75.71L74.15,5.3Q75.57,5.66,77,6.11Z"/><path class="cls-9" d="M69.68,10.25l-1.74,1.9c1,.17,2,.36,3,.6l1.65-1.83C71.66,10.66,70.67,10.44,69.68,10.25Z"/><polygon class="cls-9" points="70.98 12.74 72.63 10.9 72.63 10.9 70.98 12.74"/><polygon class="cls-9" points="76.96 6.1 79.26 3.55 79.26 3.55 76.96 6.1"/><polygon class="cls-9" points="47.47 35.36 47.47 34.85 47.01 35.36 47.47 35.36"/><polygon class="cls-10" points="24.65 68.03 27.54 64.82 25.79 62.81 22.9 66.01 24.65 68.03"/><polygon class="cls-10" points="37.33 53.96 38.46 52.72 37.53 49.81 36.4 51.05 37.33 53.96"/><path class="cls-10" d="M80.49,3.56l-.92-.33-.3.33Z"/><path class="cls-10" d="M10.34,83.87l2.54-2.82c-.43-.85-.83-1.71-1.22-2.61L9.05,81.32C9.47,82.19,9.89,83,10.34,83.87Z"/><path class="cls-10" d="M17.65,71.83,16,73.66c.34.92.71,1.82,1.11,2.71l1.6-1.77C18.3,73.69,18,72.76,17.65,71.83Z"/><path class="cls-10" d="M72.63,10.92,71,12.75c1,.23,2,.48,2.87.77l1.6-1.78C74.52,11.44,73.58,11.18,72.63,10.92Z"/><path class="cls-10" d="M77,6.11c.91.3,1.81.61,2.7.95l2.55-2.82c-.57-.24-1.15-.47-1.73-.65H79.27Z"/><polygon class="cls-10" points="73.84 13.51 75.44 11.73 75.44 11.73 73.84 13.51"/><polygon class="cls-10" points="79.66 7.05 82.21 4.23 82.21 4.23 79.66 7.05"/><path class="cls-11" d="M11.72,86.28l2.5-2.77c-.47-.81-.91-1.64-1.31-2.47l-2.55,2.82C10.78,84.69,11.24,85.5,11.72,86.28Z"/><polygon class="cls-11" points="26.39 70.04 29.28 66.83 27.54 64.82 24.65 68.03 26.39 70.04"/><polygon class="cls-11" points="38.27 56.87 39.39 55.63 38.46 52.72 37.33 53.96 38.27 56.87"/><path class="cls-11" d="M18.71,74.6l-1.6,1.77c.38.87.8,1.73,1.24,2.58l1.56-1.73C19.48,76.35,19.08,75.48,18.71,74.6Z"/><path class="cls-11" d="M75.45,11.74l-1.6,1.78c.92.28,1.82.59,2.72.93l1.57-1.74C77.25,12.36,76.35,12,75.45,11.74Z"/><path class="cls-11" d="M82.26,8.14l2.51-2.78c-.83-.4-1.69-.77-2.55-1.12L79.69,7.06C80.55,7.4,81.41,7.76,82.26,8.14Z"/><polygon class="cls-11" points="76.56 14.42 78.13 12.69 78.13 12.69 76.56 14.42"/><polygon class="cls-11" points="82.26 8.13 84.77 5.35 84.77 5.35 82.26 8.13"/><path class="cls-12" d="M13.18,88.61l2.47-2.73c-.5-.77-1-1.56-1.43-2.36l-2.5,2.76C12.19,87.08,12.68,87.85,13.18,88.61Z"/><path class="cls-12" d="M38.84,58.65a2.85,2.85,0,0,0-1.38,3.06l1.2-1.3v-.66h.62l1.31-1.42h-.34l-.84-2.61L38.29,57Z"/><path class="cls-12" d="M19.91,77.22,18.35,79c.43.82.88,1.64,1.36,2.43l1.53-1.69C20.77,78.88,20.33,78.05,19.91,77.22Z"/><polygon class="cls-12" points="28.13 72.05 31.03 68.84 29.28 66.83 26.39 70.04 28.13 72.05"/><path class="cls-12" d="M84.76,9.32l2.47-2.71c-.81-.43-1.63-.84-2.46-1.22L82.26,8.16C83.11,8.51,83.94,8.9,84.76,9.32Z"/><path class="cls-12" d="M78.14,12.71l-1.57,1.74a27.55,27.55,0,0,1,2.61,1.07l1.53-1.7C79.85,13.43,79,13.05,78.14,12.71Z"/><polygon class="cls-12" points="84.75 9.31 87.22 6.57 87.22 6.57 84.75 9.31"/><polygon class="cls-12" points="79.15 15.5 80.68 13.81 80.68 13.81 79.15 15.5"/><polygon class="cls-12" points="39.28 59.7 38.66 59.7 38.66 60.39 39.14 59.86 39.28 59.7"/><polygon class="cls-12" points="39.28 59.7 39.28 59.7 39.14 59.86 39.28 59.7"/><path class="cls-13" d="M38.71,62.62l-.05,0V60.39h0l-1.2,1.3a3,3,0,0,0,1.13,1.77,3.1,3.1,0,0,0,.57.3l1.05-1.16Z"/><polygon class="cls-13" points="29.88 74.06 32.77 70.86 31.03 68.84 28.13 72.05 29.88 74.06"/><path class="cls-13" d="M14.74,90.85l2.43-2.7c-.53-.73-1-1.48-1.52-2.25l-2.47,2.73C13.69,89.36,14.2,90.11,14.74,90.85Z"/><path class="cls-13" d="M89.6,7.91c-.66-.37-1.31-.75-2-1.1l1.62,1.46Z"/><path class="cls-13" d="M21.24,79.69l-1.53,1.69q.7,1.19,1.47,2.31L22.69,82C22.18,81.26,21.69,80.49,21.24,79.69Z"/><path class="cls-13" d="M40.29,59.7h1.48v1.2l1-1.16A3,3,0,0,0,42,58.8a2.75,2.75,0,0,0-1.41-.52L39.26,59.7Z"/><path class="cls-13" d="M80.7,13.79l-1.53,1.7c.65.29,1.3.6,2,.93L80,18.53,83.15,15C82.34,14.61,81.52,14.2,80.7,13.79Z"/><path class="cls-13" d="M87.15,10.61l2.12-2.34L87.64,6.8l-.41-.22L84.76,9.32C85.57,9.73,86.36,10.16,87.15,10.61Z"/><polygon class="cls-13" points="39.14 59.86 38.66 60.39 38.66 60.39 39.14 59.86"/><path class="cls-13" d="M38.66,60.39v2.18l.05,0h1.5l0,0a1.41,1.41,0,0,1-.81-.27,1.44,1.44,0,0,1,.85-2.61h-1l-.14.16Z"/><path class="cls-13" d="M41.7,60.91v0l.06-.05V59.7H40.28a1.41,1.41,0,0,1,.84.28A1.31,1.31,0,0,1,41.7,60.91Z"/><path class="cls-14" d="M41.77,60.9v1.72H40.21l-1.05,1.16a2.73,2.73,0,0,0,1.13.24,2.87,2.87,0,0,0,2.33-1.19,2.92,2.92,0,0,0,.19-3.09Z"/><polygon class="cls-14" points="31.63 76.07 34.52 72.87 32.77 70.86 29.88 74.06 31.63 76.07"/><path class="cls-14" d="M89.27,8.27l2,1.77.65-.71c-.75-.49-1.51-1-2.28-1.42l-.32.36Z"/><path class="cls-14" d="M22.69,82l-1.51,1.66c.51.75,1,1.49,1.58,2.2l1.49-1.64C23.71,83.53,23.18,82.79,22.69,82Z"/><path class="cls-14" d="M72.57,29.86h.77L75.9,27h-.5l-.39.71a4.41,4.41,0,0,0-.89,0,4,4,0,0,0-3.66,4.4,4.12,4.12,0,0,0,.14.78l2-2.18Z"/><path class="cls-14" d="M16.38,93l2.42-2.67c-.55-.7-1.1-1.41-1.63-2.15l-2.43,2.72C15.27,91.55,15.82,92.26,16.38,93Z"/><polygon class="cls-14" points="79.97 18.54 83.13 15.04 83.13 15.04 79.97 18.54"/><rect class="cls-14" x="88.21" y="7.86" height="3.16"/><path class="cls-14" d="M89.49,12l1.77-2-2-1.77-2.11,2.34Z"/><path class="cls-14" d="M83.15,15.05,80,18.56l-4.57,8.49h.5l7-7.73.79-1.46.34.21,1.49-1.64C84.72,15.93,83.94,15.48,83.15,15.05Z"/><polygon class="cls-14" points="72.57 30.71 73.34 29.86 72.57 29.86 72.57 30.71"/><polygon class="cls-14" points="41.72 60.97 41.78 60.91 41.78 60.91 41.72 60.97"/><polygon class="cls-14" points="40.2 62.61 40.24 62.56 40.24 62.56 40.2 62.61"/><path class="cls-14" d="M41.45,62h0a1.38,1.38,0,0,1-.94.57,1.13,1.13,0,0,1-.26,0l0,.05h1.56V60.88l-.06.06A1.44,1.44,0,0,1,41.45,62Z"/><path class="cls-15" d="M75.9,27l-2.56,2.84H76.2l.21.19v.36l1.16-1.31h0L78.7,27Z"/><path class="cls-15" d="M72.82,33.66l-.25-.22V30.71h0l-2,2.18a4.11,4.11,0,0,0,1.31,2,3.15,3.15,0,0,0,.29.22l1.3-1.41Z"/><path class="cls-15" d="M24.25,84.25l-1.49,1.64c.55.71,1.11,1.4,1.69,2.08l1.47-1.63C25.34,85.66,24.78,85,24.25,84.25Z"/><path class="cls-15" d="M91.23,10l2,1.77.87-1c-.71-.53-1.45-1-2.19-1.52l-.65.71Z"/><path class="cls-15" d="M18.12,95l2.4-2.65c-.59-.66-1.16-1.35-1.72-2L16.38,93C17,93.65,17.53,94.32,18.12,95Z"/><polygon class="cls-15" points="33.37 78.08 36.26 74.88 34.52 72.87 31.63 76.07 33.37 78.08"/><polygon class="cls-15" points="75.9 27.02 82.87 19.3 82.87 19.3 75.9 27.02"/><polygon class="cls-15" points="89.44 12 91.22 10.03 91.22 10.03 89.44 12"/><polygon class="cls-15" points="83.99 18.03 85.48 16.38 85.48 16.38 83.99 18.03"/><polygon class="cls-15" points="78.7 27.02 82.87 19.3 75.9 27.02 78.7 27.02"/><path class="cls-15" d="M85.49,16.4,84,18c.76.46,1.51.95,2.25,1.45l1.47-1.62C87,17.36,86.22,16.87,85.49,16.4Z"/><path class="cls-15" d="M91.66,13.51l1.54-1.7-2-1.77-1.78,2C90.2,12.49,90.94,13,91.66,13.51Z"/><polygon class="cls-15" points="72.57 30.7 73.33 29.85 73.33 29.85 72.57 30.7"/><path class="cls-15" d="M72.57,33.44l.25.22h.65l.21-.22a2,2,0,0,1-.39-.25,1.88,1.88,0,0,1-.24-2.65,1.84,1.84,0,0,1,1.28-.67h-1l-.76.85Z"/><path class="cls-15" d="M76.09,30.77l.32-.36v-.36l-.21-.18H74.47a1.94,1.94,0,0,1,1.62.9Z"/><path class="cls-16" d="M19.93,96.92l2.39-2.65c-.62-.65-1.22-1.3-1.8-2L18.12,95C18.71,95.64,19.31,96.29,19.93,96.92Z"/><path class="cls-16" d="M76.43,30.41v3.26h-3l-1.31,1.42a4,4,0,0,0,2.3.72h.37a.8.8,0,0,0,.31,0L78.52,32a4,4,0,0,0-1-2.88l-1.16,1.3Z"/><path class="cls-16" d="M25.92,86.34,24.45,88c.57.65,1.17,1.31,1.78,2l1.46-1.62C27.08,87.68,26.49,87,25.92,86.34Z"/><path class="cls-16" d="M93.2,11.83l2,1.77,1-1.13c-.69-.55-1.4-1.09-2.11-1.6Z"/><polygon class="cls-16" points="35.11 80.1 38.01 76.89 36.26 74.88 33.37 78.08 35.11 80.1"/><polygon class="cls-16" points="87.73 17.87 86.26 19.49 86.26 19.49 87.73 17.87 87.73 17.87"/><polygon class="cls-16" points="91.66 13.5 93.19 11.8 93.19 11.8 91.66 13.5"/><path class="cls-16" d="M93.78,15.1l1.37-1.52-2-1.77L91.66,13.5C92.39,14,93.09,14.56,93.78,15.1Z"/><path class="cls-16" d="M87.73,17.87l-1.47,1.62c.73.51,1.45,1,2.15,1.57l1.46-1.62C89.17,18.9,88.46,18.36,87.73,17.87Z"/><polygon class="cls-16" points="73.47 33.65 73.67 33.42 73.67 33.42 73.47 33.65"/><polygon class="cls-16" points="76.09 30.76 76.41 30.4 76.41 30.4 76.09 30.76"/><path class="cls-16" d="M76.37,31.57A1.91,1.91,0,0,1,75.94,33a2,2,0,0,1-2.3.47l-.21.22h3V30.38l-.33.36A1.89,1.89,0,0,1,76.37,31.57Z"/><path class="cls-17" d="M27.69,88.32l-1.46,1.62c.61.66,1.24,1.26,1.88,1.86l1.46-1.61C28.92,89.58,28.3,89,27.69,88.32Z"/><path class="cls-17" d="M21.82,98.77l2.39-2.62c-.65-.6-1.31-1.22-1.89-1.85L19.93,97C20.54,97.55,21.18,98.17,21.82,98.77Z"/><path class="cls-17" d="M95.15,13.58l2,1.77h0l1.09-1.2c-.65-.58-1.34-1.15-2-1.7l-1,1.13Z"/><polygon class="cls-17" points="36.86 82.11 39.76 78.91 38.01 76.89 35.11 80.1 36.86 82.11"/><path class="cls-17" d="M77.61,34.34A4,4,0,0,0,78.53,32l-3.37,3.74A4,4,0,0,0,77.61,34.34Z"/><polygon class="cls-17" points="93.78 15.1 95.15 13.57 95.15 13.57 93.78 15.1"/><polygon class="cls-17" points="88.41 21.05 89.87 19.43 89.87 19.43 88.41 21.05"/><path class="cls-17" d="M89.87,19.44l-1.46,1.62q1.05.81,2,1.68l1.46-1.61C91.24,20.55,90.56,20,89.87,19.44Z"/><path class="cls-17" d="M95.82,16.8l1.31-1.45-2-1.77L93.8,15.1C94.48,15.65,95.15,16.21,95.82,16.8Z"/><polygon class="cls-17" points="95.81 16.79 97.11 15.35 97.11 15.35 95.81 16.79"/><polygon class="cls-17" points="90.44 22.73 91.9 21.12 91.9 21.12 90.44 22.73"/><path class="cls-18" d="M23.8,100.52l2.39-2.61c-.66-.57-1.31-1.16-2-1.76l-2.39,2.62C22.47,99.34,23.13,100,23.8,100.52Z"/><path class="cls-18" d="M29.57,90.2,28.1,91.8c.65.61,1.31,1.19,2,1.75l1.46-1.61C30.87,91.38,30.21,90.79,29.57,90.2Z"/><polygon class="cls-18" points="38.61 84.13 41.5 80.92 39.76 78.91 36.86 82.11 38.61 84.13"/><path class="cls-18" d="M99.08,17.13h0l1.08-1.19c-.66-.61-1.31-1.21-2-1.79l-1.09,1.2Z"/><path class="cls-18" d="M97.77,18.59l1.3-1.46-2-1.78-1.3,1.45C96.48,17.38,97.13,18,97.77,18.59Z"/><path class="cls-18" d="M91.91,21.13l-1.46,1.61c.66.58,1.31,1.17,2,1.79l1.46-1.61C93.22,22.28,92.57,21.71,91.91,21.13Z"/><polygon class="cls-18" points="93.86 22.92 92.4 24.54 92.4 24.54 93.86 22.92 93.86 22.92"/><polygon class="cls-18" points="97.75 18.57 99.07 17.11 99.07 17.11 97.75 18.57"/><polygon class="cls-19" points="78.78 43.24 78.67 43.68 83.19 38.68 78.78 43.24"/><path class="cls-19" d="M31.55,91.94l-1.46,1.61c.66.57,1.37,1.12,2.08,1.66l1.46-1.63C32.92,93.06,32.23,92.51,31.55,91.94Z"/><polygon class="cls-19" points="40.35 86.14 43.24 82.93 41.5 80.92 38.61 84.13 40.35 86.14"/><path class="cls-19" d="M100.59,18.51v.87h0L102,17.81c-.6-.65-1.23-1.26-1.86-1.87l-1.08,1.19Z"/><path class="cls-19" d="M25.86,102.19l2.39-2.65c-.7-.53-1.39-1.09-2.06-1.66L23.8,100.5C24.49,101.09,25.18,101.65,25.86,102.19Z"/><path class="cls-19" d="M93.85,22.93,92.4,24.55c.65.61,1.24,1.25,1.83,1.9l1.47-1.61C95.1,24.17,94.48,23.54,93.85,22.93Z"/><path class="cls-19" d="M99.62,20.47l1-1.09v-.87l-1.53-1.38-1.31,1.46C98.4,19.2,99,19.83,99.62,20.47Z"/><polygon class="cls-19" points="99.42 21.31 100.41 20.23 100.41 20.23 99.42 21.31"/><polygon class="cls-19" points="94.02 27.28 95.48 25.67 95.48 25.67 94.02 27.28"/><path class="cls-20" d="M33.63,93.58l-1.46,1.63c.7.53,1.44,1,2.17,1.52l1.48-1.63C35.07,94.62,34.34,94.12,33.63,93.58Z"/><path class="cls-20" d="M28,103.77l2.41-2.67c-.74-.5-1.45-1-2.16-1.56l-2.39,2.65C26.56,102.73,27.27,103.26,28,103.77Z"/><path class="cls-20" d="M41.34,87.28a6,6,0,0,0-.57,2.11v.23L45.88,84a5.7,5.7,0,0,0-1.4.38l-1.23-1.42-2.89,3.21Z"/><path class="cls-20" d="M100.59,21.55v.65h1l2.16-2.38c-.58-.65-1.18-1.31-1.79-2l-1.41,1.57Z"/><path class="cls-20" d="M97.08,27H94.47L83.21,38.68l-4.52,5-1.4,5.51,2.08-2.31L80.12,44,95.59,28l.41.51,1.1-1.22Z"/><polygon class="cls-20" points="97.08 27.02 97.08 27.24 97.28 27.02 97.08 27.02"/><path class="cls-20" d="M101.65,22.17h-.5l.24.29Z"/><polygon class="cls-20" points="101.15 22.17 100.61 22.17 100.61 22.73 101.15 22.17"/><path class="cls-20" d="M100.59,21.55V19.38l-1,1.09C99.93,20.83,100.29,21.18,100.59,21.55Z"/><polygon class="cls-20" points="99.13 22.17 100.61 22.17 100.61 21.55 100.16 21.11 99.13 22.17"/><path class="cls-20" d="M97.08,26.38V24.3l-1,1-.43-.47-1.47,1.62c.13.14.26.27.38.41l-.16.17h2.61Z"/><polygon class="cls-20" points="100.61 22.17 99.13 22.17 97.08 24.3 97.08 26.38 100.61 22.73 100.61 22.17"/><path class="cls-20" d="M97.45,26.85l-.37-.45v.66h.2Z"/><path class="cls-21" d="M30.22,105.25l2.43-2.68c-.76-.47-1.51-1-2.24-1.47L28,103.77C28.75,104.28,29.47,104.77,30.22,105.25Z"/><polygon class="cls-21" points="75.86 54.69 77.95 52.38 79.35 46.88 77.27 49.19 75.86 54.69"/><path class="cls-21" d="M101.65,22.17h.46l1.74,1.55h0l1.69-1.88c-.55-.69-1.12-1.38-1.7-2.05l-2.16,2.38Z"/><path class="cls-21" d="M35.82,95.1l-1.48,1.63c.75.5,1.51,1,2.28,1.43l1.49-1.65C37.33,96.07,36.56,95.6,35.82,95.1Z"/><path class="cls-21" d="M97.08,27.24,96,28.46c.37.46.74.93,1.1,1.41V27.24Z"/><path class="cls-21" d="M41.51,92.74l2.09-2.31h0V86.81h3.26L49,84.41a5.71,5.71,0,0,0-1.91-.48,5.91,5.91,0,0,0-1.26,0l-5.1,5.65A5.86,5.86,0,0,0,41.51,92.74Z"/><polygon class="cls-21" points="97.28 27.02 97.08 27.24 97.08 27.24 97.28 27.02 97.28 27.02 97.28 27.02"/><polygon class="cls-21" points="101.37 22.44 101.64 22.15 101.64 22.15 101.37 22.44"/><path class="cls-21" d="M97.6,27h-.32l-.2.22v2.61l.53.73,1.48-1.64C98.63,28.3,98.11,27.65,97.6,27Z"/><path class="cls-21" d="M103.08,24.54l.77-.82-1.71-1.55h-.46l-.26.29C102,23.14,102.53,23.84,103.08,24.54Z"/><polygon class="cls-21" points="97.6 30.59 99.09 28.94 99.09 28.94 97.6 30.59"/><polygon class="cls-21" points="103.06 24.53 103.8 23.7 103.8 23.7 103.06 24.53"/><polygon class="cls-21" points="97.28 27.03 97.45 26.84 97.45 26.84 97.28 27.03"/><polygon class="cls-21" points="97.28 27.03 97.45 26.84 97.45 26.84 97.28 27.03"/><path class="cls-21" d="M97.28,27h.32l-.15-.19Z"/><path class="cls-21" d="M43.66,89.61a3,3,0,0,1,3-2.8H43.6v3.62l.09-.1A2.9,2.9,0,0,1,43.66,89.61Z"/><polygon class="cls-21" points="43.61 90.46 43.71 90.35 43.71 90.35 43.61 90.46"/><path class="cls-22" d="M105.81,25.49h0L107.16,24c-.53-.74-1.07-1.45-1.62-2.17l-1.69,1.88Z"/><path class="cls-22" d="M32.53,106.63,35,103.92c-.79-.43-1.57-.88-2.33-1.35l-2.43,2.68Q31.36,106,32.53,106.63Z"/><path class="cls-22" d="M46.87,86.81h2.51l.45.4v.26L51.17,86A5.71,5.71,0,0,0,49,84.41Z"/><path class="cls-22" d="M44.5,92.92l-.9-.81V90.43l-2.09,2.31a6.29,6.29,0,0,0,.66,1,5.9,5.9,0,0,0,1.12,1l1.61-1.78Z"/><path class="cls-22" d="M74.76,59a2.89,2.89,0,0,0-3,2.76,2.82,2.82,0,0,0,0,.58A3.38,3.38,0,0,0,72,63l1.19-1.31h0V60.46h1.07l2.32-2.55L78,52.4l-2.09,2.31Z"/><path class="cls-22" d="M98.85,32.42l.28.44.09-.1Z"/><path class="cls-22" d="M38.11,96.51l-1.49,1.65c.78.46,1.58.89,2.38,1.3l1.51-1.67C39.7,97.38,38.9,97,38.11,96.51Z"/><path class="cls-22" d="M104.66,26.73l1.12-1.24-2-1.77-.74.82C103.62,25.26,104.15,26,104.66,26.73Z"/><path class="cls-22" d="M100.63,31.19c-.49-.76-1-1.51-1.54-2.23L97.61,30.6c.42.6.84,1.2,1.24,1.82l.37.34Z"/><polygon class="cls-22" points="104.66 26.72 105.78 25.49 105.78 25.49 104.66 26.72"/><polygon class="cls-22" points="46.87 86.84 46.88 86.83 46.88 86.83 46.87 86.84"/><path class="cls-22" d="M44.5,92.92h.42l.36-.4a3,3,0,0,1-1.59-2.19l-.09.1v1.68Z"/><path class="cls-22" d="M46.91,86.82a3,3,0,0,1,2.29,1.35l.65-.7v-.26l-.44-.4h-2.5Z"/><path class="cls-22" d="M73.47,61a1.42,1.42,0,0,1,.65-.51l.07-.08h-1v1.18l.09-.09A1.18,1.18,0,0,1,73.47,61Z"/><polygon class="cls-22" points="73.17 61.66 73.25 61.57 73.25 61.57 73.17 61.66"/><path class="cls-23" d="M40.51,97.79,39,99.47c.83.42,1.66.81,2.5,1.18L43,99C42.18,98.59,41.34,98.2,40.51,97.79Z"/><path class="cls-23" d="M107.77,27.26h0l.9-1c-.49-.77-1-1.52-1.52-2.25l-1.34,1.48Z"/><path class="cls-23" d="M34.93,107.93l2.48-2.74c-.83-.4-1.64-.83-2.43-1.27l-2.45,2.71C33.32,107.09,34.12,107.52,34.93,107.93Z"/><path class="cls-23" d="M101.18,34.53l-2-1.77h0l-.09.1c.49.78,1,1.57,1.41,2.38l.65-.71Z"/><path class="cls-23" d="M73.16,63.36V61.63L72,62.94a2.94,2.94,0,0,0,1,1.26,3,3,0,0,0,1,.46l1.19-1.3Z"/><path class="cls-23" d="M49.83,87.47v3.92l2.61-2.91A5.85,5.85,0,0,0,51.13,86l-1.34,1.49Z"/><path class="cls-23" d="M74.22,60.45h2v1.67l1.09-1.21a2.9,2.9,0,0,0-1-1.39l-.19-.1.4-1.55-2.32,2.56Z"/><path class="cls-23" d="M44.92,92.92h0L43.3,94.7a5.81,5.81,0,0,0,2.65,1l2.53-2.79Z"/><polygon class="cls-23" points="99.22 32.74 100.63 31.17 100.63 31.17 99.22 32.74"/><path class="cls-23" d="M106.16,29l1.59-1.75-2-1.77-1.12,1.24C105.16,27.51,105.68,28.24,106.16,29Z"/><path class="cls-23" d="M100.63,31.19l-1.41,1.57,2,1.77.89-1C101.61,32.73,101.14,32,100.63,31.19Z"/><polygon class="cls-23" points="106.15 29.01 107.73 27.25 107.73 27.25 106.15 29.01"/><polygon class="cls-23" points="101.18 34.52 102.07 33.54 102.07 33.54 101.18 34.52"/><polygon class="cls-23" points="49.2 88.17 49.83 87.47 49.83 87.47 49.2 88.17 49.2 88.17"/><polygon class="cls-23" points="44.92 92.93 45.28 92.53 45.28 92.53 44.92 92.93"/><path class="cls-23" d="M49.7,90.07a3,3,0,0,1-3.26,2.79,3,3,0,0,1-1.16-.34l-.36.4h3.56l1.35-1.49V87.51l-.66.69A3,3,0,0,1,49.7,90.07Z"/><polygon class="cls-23" points="74.15 60.52 74.23 60.44 74.23 60.44 74.15 60.52"/><path class="cls-23" d="M75.16,63.36l.23-.26a1.42,1.42,0,0,1-.53.2,1.45,1.45,0,0,1-1.65-1.19,1.82,1.82,0,0,1,0-.57l-.08.09v1.73Z"/><path class="cls-23" d="M74.41,60.47h-.19l-.07.08A1.12,1.12,0,0,1,74.41,60.47Z"/><path class="cls-23" d="M75.91,62.52l.35-.38V60.45H74.64a1.36,1.36,0,0,1,.84.27A1.43,1.43,0,0,1,75.91,62.52Z"/><path class="cls-24" d="M109.73,29h0l.38-.41c-.46-.8-.94-1.59-1.44-2.36l-.9,1Z"/><path class="cls-24" d="M103.15,36.3l-2-1.77-.65.71c.25.47.5.94.74,1.42A5.79,5.79,0,0,0,99.8,40l3.35-3.71Z"/><path class="cls-24" d="M76.26,62.12v1.22h-1.1L74,64.65a3.74,3.74,0,0,0,.66.09,3.42,3.42,0,0,0,.45,0A2.81,2.81,0,0,0,77,63.54a2.87,2.87,0,0,0,.39-2.61Z"/><path class="cls-24" d="M49.83,91.43v1.49H48.48L46,95.71a2.36,2.36,0,0,1,.28,0h.46a5.92,5.92,0,0,0,5.88-5.47,5.6,5.6,0,0,0-.14-1.78l-2.61,2.91Z"/><path class="cls-24" d="M43,99l-1.54,1.7c.87.38,1.75.73,2.62,1L45.68,100C44.78,99.65,43.9,99.31,43,99Z"/><path class="cls-24" d="M37.42,109.14l2.51-2.79c-.85-.36-1.69-.75-2.52-1.15L34.93,108Z"/><path class="cls-24" d="M107.56,31.42l2.14-2.37-2-1.78L106.16,29C106.65,29.8,107.12,30.6,107.56,31.42Z"/><path class="cls-24" d="M103.05,35.34c-.31-.6-.65-1.2-1-1.79l-.89,1,2,1.77,1.31-1.41A5.59,5.59,0,0,0,103.05,35.34Z"/><polygon class="cls-24" points="103.14 36.28 104.41 34.88 104.41 34.88 103.14 36.28"/><polygon class="cls-24" points="107.55 31.41 109.7 29.03 109.7 29.03 107.55 31.41"/><polygon class="cls-24" points="48.47 92.91 49.82 91.42 49.82 91.42 48.47 92.91"/><polygon class="cls-24" points="49.83 92.92 49.83 91.43 48.48 92.92 49.83 92.92"/><polygon class="cls-24" points="75.91 62.53 76.26 62.14 76.26 62.14 75.91 62.53 75.91 62.53"/><polygon class="cls-24" points="75.39 63.1 75.16 63.37 75.16 63.37 75.39 63.1 75.39 63.1"/><path class="cls-24" d="M75.77,62.72h0a1.44,1.44,0,0,1-.4.38l-.24.26h1.11V62.12l-.36.38A.91.91,0,0,1,75.77,62.72Z"/><path class="cls-25" d="M102.66,40.78V37.67h2.81l.12-.13h-1.08l-1.38-1.24L99.78,40a5.69,5.69,0,0,0,.66,3.21l2.2-2.44Z"/><path class="cls-25" d="M45.67,100l-1.57,1.75c.9.33,1.81.65,2.74.92l1.61-1.79Z"/><path class="cls-25" d="M110.43,29.68v2.5h0l1-1.11c-.43-.83-.88-1.65-1.35-2.45l-.38.41Z"/><path class="cls-25" d="M40,110.19l2.56-2.84c-.89-.32-1.77-.65-2.61-1l-2.54,2.81C38.27,109.5,39.13,109.85,40,110.19Z"/><path class="cls-25" d="M108.85,33.93l1.58-1.75v-2.5L109.7,29l-2.14,2.39C108,32.24,108.42,33.08,108.85,33.93Z"/><path class="cls-25" d="M106.62,34.89a5.43,5.43,0,0,0-2.2,0l-1.3,1.41,1.37,1.23h1.07l2.11-2.33A5.5,5.5,0,0,0,106.62,34.89Z"/><polygon class="cls-25" points="105.58 37.53 107.69 35.2 107.69 35.2 105.58 37.53"/><polygon class="cls-25" points="108.85 33.92 110.43 32.17 110.43 32.17 108.85 33.92"/><path class="cls-25" d="M102.72,40V39.9a2.84,2.84,0,0,1,1.19-1.74,2.91,2.91,0,0,1,.35-.2,2.69,2.69,0,0,1,1.18-.28h-2.81v3.11h0A2.76,2.76,0,0,1,102.72,40Z"/><polygon class="cls-25" points="105.47 37.69 105.48 37.69 105.48 37.69 105.47 37.69"/><polygon class="cls-25" points="102.67 40.8 102.7 40.77 102.7 40.77 102.67 40.8"/><path class="cls-26" d="M48.45,100.84l-1.61,1.77c.94.28,1.89.54,2.86.77l1.67-1.86C50.38,101.34,49.41,101.11,48.45,100.84Z"/><path class="cls-26" d="M103.85,43.41h-.42l-.77-.69v-2l-2.2,2.45c.07.13.13.25.21.37L86.4,62.77Z"/><path class="cls-26" d="M110.43,36.13h0l2.23-2.49c-.39-.86-.8-1.72-1.23-2.57l-1,1.11Z"/><polygon class="cls-26" points="107.73 37.67 108.44 38.32 108.44 38.32 109.16 37.54 109.16 37.54 105.59 37.54 105.47 37.67 105.52 37.67 107.73 37.67"/><path class="cls-26" d="M42.69,111.17l2.61-2.91c-.93-.28-1.84-.58-2.74-.91L40,110.19C40.89,110.54,41.81,110.86,42.69,111.17Z"/><path class="cls-26" d="M109.86,36.76a5.74,5.74,0,0,0-2.16-1.55l-2.11,2.33h3.57Z"/><path class="cls-26" d="M110,36.56l.4-.43V32.21L108.85,34C109.27,34.79,109.66,35.68,110,36.56Z"/><polygon class="cls-26" points="110.02 36.55 110.42 36.12 110.42 36.12 110.02 36.55"/><polygon class="cls-26" points="109.14 37.53 109.85 36.75 109.85 36.75 109.14 37.53"/><path class="cls-26" d="M103.85,42.81a2.92,2.92,0,0,1-1.13-1.92.29.29,0,0,0,0-.13h0v2l.77.69h.36l.34-.38Z"/><path class="cls-26" d="M107.89,38.93h0l.55-.61-.71-.65h-2.21a3.41,3.41,0,0,1,.55,0A2.83,2.83,0,0,1,107.89,38.93Z"/><polygon class="cls-26" points="107.75 38.63 108.58 38.63 108.58 38.63 107.75 38.63"/><polygon class="cls-26" points="103.84 43.4 104.18 43.03 104.18 43.03 103.84 43.4"/><path class="cls-27" d="M103.85,43.41,86.4,62.77,75.3,77.69l.72.54L100.69,50.9l3.55-4.76.21,0,.38.06v.06l2.61-2.88Z"/><path class="cls-27" d="M45.49,112l2.69-3c-1-.23-1.92-.49-2.87-.77l-2.61,2.91C43.62,111.47,44.54,111.75,45.49,112Z"/><path class="cls-27" d="M51.37,101.55,49.7,103.4c1,.24,2,.44,3,.61l1.75-2A28.83,28.83,0,0,1,51.37,101.55Z"/><path class="cls-27" d="M110.43,37.54h-1.31l-.71.78h0v3.92l5.33-5.88c-.36-.91-.73-1.81-1.14-2.7l-2.23,2.49Z"/><path class="cls-27" d="M110.43,37.54V36.13l-.4.43C110.17,36.89,110.3,37.21,110.43,37.54Z"/><path class="cls-27" d="M109.86,36.76l-.7.78h1.3l-.14-.23A5.83,5.83,0,0,0,109.86,36.76Z"/><path class="cls-27" d="M108.42,38.32l-.55.61a2.85,2.85,0,0,1-.75,4h0a2.55,2.55,0,0,1-.75.34l-.12.05a2.87,2.87,0,0,1-1.27,0,3,3,0,0,1-.79-.29l-.34.37h3.56l1.06-1.17V38.32Z"/><path class="cls-28" d="M113.8,36.34l-5.33,5.88h0v1.17h-1.06l-2.61,2.88c.26,1.06.48,2.13.65,3.21l1.84-2c-.09-.46-.2-.92-.31-1.39a5.49,5.49,0,0,0,1.73-.77,5.72,5.72,0,0,0,2.46-5.67c.3.87.57,1.73.83,2.62l2.78-3.09C114.5,38.21,114.16,37.3,113.8,36.34Z"/><path class="cls-28" d="M54.46,102.08l-1.75,2c1,.18,2.11.32,3.18.43l1.83-2C56.62,102.34,55.53,102.23,54.46,102.08Z"/><path class="cls-28" d="M48.4,112.73l2.77-3.07c-1-.18-2-.39-3-.65l-2.69,3C46.45,112.28,47.42,112.52,48.4,112.73Z"/><polygon class="cls-28" points="78.12 79.8 83.72 73.6 100.67 50.88 76 78.22 78.12 79.8"/><polygon class="cls-28" points="107.41 43.41 108.46 42.24 108.46 42.24 107.41 43.41"/><polygon class="cls-28" points="108.47 43.41 108.47 42.24 107.41 43.41 108.47 43.41"/><path class="cls-3" d="M51.43,113.32l2.88-3.19c-1.05-.13-2.1-.28-3.14-.47l-2.77,3.07C49.4,113,50.41,113.15,51.43,113.32Z"/><path class="cls-3" d="M60.65,102.5c-1,0-2,0-2.93-.09l-1.83,2c1.11.11,2.23.18,3.37.22l2-2.17Z"/><path class="cls-3" d="M105.94,53l2-2.14q-.23-1.69-.57-3.33l-1.83,2C105.67,50.64,105.81,51.78,105.94,53Z"/><path class="cls-3" d="M114.81,39.16,112,42.25c.3,1,.56,2,.79,3.07l2.89-3.2C115.43,41.12,115.13,40.14,114.81,39.16Z"/><polygon class="cls-3" points="78.75 80.27 83.72 73.6 78.12 79.8 78.75 80.27"/><path class="cls-4" d="M106.12,56.68l2.1-2.32c-.07-1.2-.19-2.39-.34-3.57l-2,2.15C106,54.18,106.11,55.43,106.12,56.68Z"/><path class="cls-4" d="M61.2,102.49l-2,2.17h1.39c.74,0,1.47,0,2.2-.06l2.1-2.32C63.71,102.41,62.47,102.48,61.2,102.49Z"/><path class="cls-4" d="M54.61,113.75l3-3.33c-1.11-.07-2.22-.17-3.31-.29l-2.88,3.19C52.48,113.49,53.57,113.63,54.61,113.75Z"/><path class="cls-4" d="M115.7,42.12l-2.89,3.2c.25,1.07.46,2.16.66,3.27l3-3.34C116.26,44.18,116,43.18,115.7,42.12Z"/><path class="cls-5" d="M57.94,114l3.16-3.5h-.45c-1,0-2,0-3-.08l-3,3.33C55.71,113.86,56.83,113.94,57.94,114Z"/><path class="cls-5" d="M106.12,57c0,1.27-.05,2.53-.16,3.77l2.32-2.56V57c0-.89,0-1.79-.08-2.67l-2.09,2.32Z"/><path class="cls-5" d="M64.94,102.3l-2.1,2.32c1.31-.06,2.59-.17,3.86-.33L69,101.73Q67,102.11,64.94,102.3Z"/><path class="cls-5" d="M116.45,45.24l-3,3.33c.19,1.14.33,2.3.44,3.46L117,48.52C116.91,47.42,116.68,46.32,116.45,45.24Z"/><path class="cls-6" d="M60.65,114.06h.81l3.35-3.72c-1.23.1-2.46.15-3.71.16L57.94,114C58.84,114,59.74,114.06,60.65,114.06Z"/><path class="cls-6" d="M69,101.73l-2.32,2.56c1.43-.18,2.84-.43,4.23-.74l2.62-2.92C72.06,101.07,70.55,101.44,69,101.73Z"/><path class="cls-6" d="M105.34,65.44,108,62.52c.16-1.42.27-2.84.3-4.28L106,60.81A42.53,42.53,0,0,1,105.34,65.44Z"/><path class="cls-6" d="M117,48.52,113.88,52c.12,1.22.2,2.45.23,3.7L117.46,52C117.36,50.84,117.22,49.71,117,48.52Z"/><path class="cls-29" d="M117.46,52l-3.35,3.72V57c0,.9,0,1.81-.08,2.7l3.62-4C117.64,54.48,117.57,53.24,117.46,52Z"/><path class="cls-29" d="M103.94,70.93l3.22-3.56a46.75,46.75,0,0,0,.82-4.85l-2.61,2.92A45.18,45.18,0,0,1,103.94,70.93Z"/><path class="cls-29" d="M65.17,113.88l3.61-4c-1.3.21-2.63.36-4,.46l-3.35,3.71C62.71,114,64,114,65.17,113.88Z"/><path class="cls-29" d="M73.57,100.65,71,103.57a46.17,46.17,0,0,0,4.74-1.3l3.23-3.58A44.64,44.64,0,0,1,73.57,100.65Z"/><path class="cls-30" d="M69.14,113.43l4-4.4c-1.42.35-2.86.63-4.33.85l-3.61,4C66.51,113.78,67.84,113.62,69.14,113.43Z"/><path class="cls-30" d="M78.9,98.69l-3.23,3.57A48,48,0,0,0,81.3,100L86,94.76A45.74,45.74,0,0,1,78.9,98.69Z"/><path class="cls-30" d="M100.8,78.36l4.67-5.18a45.38,45.38,0,0,0,1.69-5.81l-3.22,3.56A44.49,44.49,0,0,1,100.8,78.36Z"/><path class="cls-30" d="M114.05,59.73c-.08,1.49-.21,3-.41,4.41l4-4.41c0-.89.07-1.79.07-2.7V55.72Z"/><path class="cls-42" d="M73.44,112.62l4.5-5q-2.37.81-4.83,1.4l-4,4.4C70.59,113.21,72,112.94,73.44,112.62Z"/><path class="cls-42" d="M113.45,65.48l4-3.26c.08-.83.14-1.68.18-2.52l-4,4.44C113.58,64.59,113.52,65,113.45,65.48Z"/><path class="cls-42" d="M86,94.77,81.3,100a48.12,48.12,0,0,0,7.92-4.82L101.5,81.56a47.32,47.32,0,0,0,4-8.35l-4.67,5.18A45.81,45.81,0,0,1,86,94.77Z"/><path class="cls-43" d="M101.5,81.54,89.22,95.14A48.34,48.34,0,0,0,101.5,81.54Z"/><path class="cls-43" d="M116.72,67.41,112.24,71c-.35,1.3-.76,2.61-1.22,3.92l5.38-6C116.51,68.46,116.62,67.94,116.72,67.41Z"/><path class="cls-43" d="M78.19,111.3l5.39-6a52.14,52.14,0,0,1-5.64,2.31l-4.5,5C75.05,112.24,76.63,111.81,78.19,111.3Z"/><path class="cls-44" d="M83.61,109.22,91.05,101a52.76,52.76,0,0,1-7.44,4.35l-5.4,6A54.21,54.21,0,0,0,83.61,109.22Z"/><path class="cls-44" d="M116.4,69l-5.36,6a53.22,53.22,0,0,1-3.56,7.89l7.44-8.23A54.65,54.65,0,0,0,116.4,69Z"/><path class="cls-45" d="M90.39,105.67l21.67-24a57,57,0,0,0,2.84-7.09l-7.43,8.23A53.88,53.88,0,0,1,91.07,101l-7.46,8.25A55.3,55.3,0,0,0,90.39,105.67Z"/><path class="cls-46" d="M112.06,81.67l-21.67,24A57.48,57.48,0,0,0,112.06,81.67Z"/><path d="M160.66,55.37,146,11.12h8.54l13.08,40h-4.23l13.59-40h7.56l13.22,40h-4.11l13.4-40h7.84L200.23,55.37h-8.7l-12.1-36.09h2.28L169.45,55.37Z"/><path d="M234.18,55.82a20.59,20.59,0,0,1-9.83-2.25,16.28,16.28,0,0,1-6.51-6.16,17.31,17.31,0,0,1-2.31-8.91,17.58,17.58,0,0,1,2.25-9A16.19,16.19,0,0,1,224,23.4a18.13,18.13,0,0,1,9-2.21,17.61,17.61,0,0,1,8.79,2.15,15.47,15.47,0,0,1,6.07,6.07A18.44,18.44,0,0,1,250,38.64v1.13a11.19,11.19,0,0,1-.1,1.2H221.79v-5.2h24l-3.1,1.64a9.61,9.61,0,0,0-1.2-5.12A9.22,9.22,0,0,0,238,28.81a9.81,9.81,0,0,0-5-1.26A10,10,0,0,0,228,28.81a9.13,9.13,0,0,0-3.41,3.51,10.87,10.87,0,0,0-1.24,5.28v1.26a10.49,10.49,0,0,0,1.39,5.38,9.27,9.27,0,0,0,3.92,3.6,13,13,0,0,0,5.82,1.27,14.16,14.16,0,0,0,5.12-.89,10.92,10.92,0,0,0,4-2.78l4.23,4.87a14.72,14.72,0,0,1-5.72,4.07A20.46,20.46,0,0,1,234.18,55.82Z"/><path d="M268.06,55.82a29.4,29.4,0,0,1-8.12-1.11A21.14,21.14,0,0,1,253.78,52l3-6a21.84,21.84,0,0,0,5.44,2.4,22.25,22.25,0,0,0,6.32,1,10.9,10.9,0,0,0,5.4-1,3,3,0,0,0,1.68-2.72,2.35,2.35,0,0,0-1.14-2.12,8.9,8.9,0,0,0-3-1.11q-1.83-.37-4.08-.69c-1.49-.21-3-.49-4.49-.85a16.14,16.14,0,0,1-4.07-1.58,8.45,8.45,0,0,1-3-2.82,8.61,8.61,0,0,1-1.14-4.68,8.93,8.93,0,0,1,1.83-5.59,11.76,11.76,0,0,1,5.15-3.67,21.78,21.78,0,0,1,7.87-1.29,31.9,31.9,0,0,1,6.89.76,18.47,18.47,0,0,1,5.76,2.15l-3,6a16,16,0,0,0-4.83-2,21.83,21.83,0,0,0-4.84-.54,10.41,10.41,0,0,0-5.34,1.08,3.16,3.16,0,0,0-1.74,2.72,2.57,2.57,0,0,0,1.14,2.27,9.3,9.3,0,0,0,3,1.2,37.91,37.91,0,0,0,4.08.73,35.28,35.28,0,0,1,4.45.85,19,19,0,0,1,4.08,1.55,7.78,7.78,0,0,1,3,2.75,8.32,8.32,0,0,1,1.14,4.62,8.57,8.57,0,0,1-1.86,5.5,12,12,0,0,1-5.28,3.63A23.18,23.18,0,0,1,268.06,55.82Z"/><path d="M285.7,28.19V21.87h22.51v6.32Zm17.2,27.63q-5.55,0-8.6-2.88t-3-8.5V14.16h7.91V44.25A5.33,5.33,0,0,0,300.44,48a4.49,4.49,0,0,0,3.44,1.33,7,7,0,0,0,4.43-1.39l2.21,5.62a9.21,9.21,0,0,1-3.41,1.71,15.71,15.71,0,0,1-4.21.57Z"/><path d="M331.34,55.82a19.55,19.55,0,0,1-9.45-2.25,16.61,16.61,0,0,1-6.48-6.16,18.21,18.21,0,0,1,0-17.86,16.53,16.53,0,0,1,6.48-6.1,19.79,19.79,0,0,1,9.45-2.21,18.26,18.26,0,0,1,8.7,2,13.25,13.25,0,0,1,5.72,5.85l-6.07,3.54a9.61,9.61,0,0,0-3.7-3.54A10,10,0,0,0,331.28,28,10.82,10.82,0,0,0,326,29.21a9.16,9.16,0,0,0-3.66,3.64,12.71,12.71,0,0,0,0,11.31A9.08,9.08,0,0,0,326,47.77,10.94,10.94,0,0,0,331.28,49,10.13,10.13,0,0,0,336,47.9a9.71,9.71,0,0,0,3.7-3.55l6.07,3.55A13.72,13.72,0,0,1,340,53.74,17.91,17.91,0,0,1,331.34,55.82Z"/><path d="M367.25,55.82A18.71,18.71,0,0,1,358,53.57a16.77,16.77,0,0,1-6.38-6.16,18.21,18.21,0,0,1,0-17.86,16.69,16.69,0,0,1,6.38-6.1,18.92,18.92,0,0,1,9.23-2.21,19.27,19.27,0,0,1,9.33,2.21A16.4,16.4,0,0,1,383,29.52a18.47,18.47,0,0,1,0,17.89,16.42,16.42,0,0,1-6.38,6.16A19,19,0,0,1,367.25,55.82Zm0-6.77a10.54,10.54,0,0,0,5.19-1.26A9,9,0,0,0,376,44.12a13,13,0,0,0,0-11.28,9.06,9.06,0,0,0-3.57-3.64,11.11,11.11,0,0,0-10.28,0,9.46,9.46,0,0,0-3.57,3.64,12.64,12.64,0,0,0,0,11.28,9.4,9.4,0,0,0,3.57,3.67A10.3,10.3,0,0,0,367.25,49.05Z"/><path d="M435.46,21.24a15.63,15.63,0,0,1,7.18,1.58,11.26,11.26,0,0,1,4.9,4.83A17.35,17.35,0,0,1,449.31,36V55.37h-7.9V37c0-3-.66-5.23-2-6.7a7.07,7.07,0,0,0-5.62-2.21,9,9,0,0,0-4.58,1.14,7.61,7.61,0,0,0-3.1,3.35A12.48,12.48,0,0,0,425,38.24V55.37h-7.9V37c0-3-.66-5.23-2-6.7a7.08,7.08,0,0,0-5.63-2.21,9,9,0,0,0-4.58,1.14,7.61,7.61,0,0,0-3.1,3.35,12.63,12.63,0,0,0-1.1,5.62V55.37h-7.91V21.62h7.53v9L399,28a11.55,11.55,0,0,1,5-5,15.88,15.88,0,0,1,7.43-1.7,14.51,14.51,0,0,1,8.25,2.34,11.21,11.21,0,0,1,4.65,7.08l-3.1-1.08a13,13,0,0,1,5.44-6.07A16.73,16.73,0,0,1,435.46,21.24Z"/><path d="M459.42,55.37V8.47h7.9v21l-.63,9,.25,9v8Zm18.71.45a15.37,15.37,0,0,1-7.65-1.9,13.19,13.19,0,0,1-5.27-5.72,21.47,21.47,0,0,1-1.93-9.7,21,21,0,0,1,2-9.74,13.39,13.39,0,0,1,5.37-5.66,15.32,15.32,0,0,1,7.49-1.86A17.51,17.51,0,0,1,487,23.39a16,16,0,0,1,6.07,6,19.55,19.55,0,0,1,0,18.21,16.33,16.33,0,0,1-6.07,6,17.56,17.56,0,0,1-8.83,2.22Zm-.88-6.77a10.25,10.25,0,0,0,5.09-1.26,9.33,9.33,0,0,0,3.57-3.67,12.58,12.58,0,0,0,0-11.28,9.32,9.32,0,0,0-3.57-3.64,10.14,10.14,0,0,0-5.09-1.26,10.41,10.41,0,0,0-5.12,1.26,9.29,9.29,0,0,0-3.61,3.64,12.71,12.71,0,0,0,0,11.28,9.32,9.32,0,0,0,3.61,3.65,10.43,10.43,0,0,0,5.12,1.28Z"/><path d="M518.66,55.82a20.66,20.66,0,0,1-9.84-2.25,16.28,16.28,0,0,1-6.51-6.16A17.3,17.3,0,0,1,500,38.5a17.57,17.57,0,0,1,2.24-9,16.22,16.22,0,0,1,6.2-6.1,18,18,0,0,1,9-2.21,17.61,17.61,0,0,1,8.79,2.15,15.47,15.47,0,0,1,6.07,6.07,18.44,18.44,0,0,1,2.21,9.23v1.13a11.26,11.26,0,0,1-.09,1.2H506.26v-5.2h24l-3.09,1.64A9.62,9.62,0,0,0,526,32.29a9.2,9.2,0,0,0-3.44-3.48,9.81,9.81,0,0,0-5-1.26,10,10,0,0,0-5.09,1.26A9.13,9.13,0,0,0,509,32.32a10.89,10.89,0,0,0-1.23,5.28v1.26a10.44,10.44,0,0,0,1.39,5.38,9.27,9.27,0,0,0,3.92,3.6,12.83,12.83,0,0,0,5.81,1.27,14.16,14.16,0,0,0,5.12-.89,10.92,10.92,0,0,0,4.05-2.78l4.24,4.87a14.82,14.82,0,0,1-5.72,4.07A20.51,20.51,0,0,1,518.66,55.82Z"/><path d="M161.34,100.82V86.87h-5.49v-2.6H169.9v2.6h-5.49v13.95Z"/><path d="M195.73,101a7.73,7.73,0,0,1-3.68-.84,6.23,6.23,0,0,1-2.44-2.31,6.56,6.56,0,0,1-.86-3.33,6.65,6.65,0,0,1,.84-3.35,6,6,0,0,1,2.32-2.28,7.19,7.19,0,0,1,6.66,0,5.79,5.79,0,0,1,2.27,2.28,6.81,6.81,0,0,1,.82,3.45v.87H191.09v-2h9l-1.16.62a3.68,3.68,0,0,0-.45-1.92,3.43,3.43,0,0,0-1.29-1.3,3.63,3.63,0,0,0-1.88-.47,3.68,3.68,0,0,0-1.91.47,3.27,3.27,0,0,0-1.27,1.31,4.07,4.07,0,0,0-.47,2v.47a3.92,3.92,0,0,0,.53,2A3.58,3.58,0,0,0,193.65,98a5,5,0,0,0,2.18.47,5.16,5.16,0,0,0,1.91-.33,4.11,4.11,0,0,0,1.52-1L200.84,99a5.65,5.65,0,0,1-2.14,1.53A7.86,7.86,0,0,1,195.73,101Z"/><path d="M229.46,101a7.39,7.39,0,0,1-3.54-.84,6.18,6.18,0,0,1-2.42-2.31,6.8,6.8,0,0,1,0-6.68,6.1,6.1,0,0,1,2.42-2.28,7.41,7.41,0,0,1,3.54-.83,6.78,6.78,0,0,1,3.25.75A4.85,4.85,0,0,1,234.85,91l-2.27,1.33A3.6,3.6,0,0,0,231.2,91a3.73,3.73,0,0,0-1.77-.42,4,4,0,0,0-2,.47,3.45,3.45,0,0,0-1.37,1.36,4.79,4.79,0,0,0,0,4.24A3.58,3.58,0,0,0,227.43,98a4.23,4.23,0,0,0,2,.47A3.73,3.73,0,0,0,231.2,98a3.65,3.65,0,0,0,1.38-1.32L234.85,98a5,5,0,0,1-2.14,2.19A6.69,6.69,0,0,1,229.46,101Z"/><path d="M263.61,88.05a6,6,0,0,1,2.71.59,4.33,4.33,0,0,1,1.88,1.81,6.17,6.17,0,0,1,.69,3.13v7.24h-3V94a3.44,3.44,0,0,0-.79-2.5,2.88,2.88,0,0,0-2.21-.83,4,4,0,0,0-1.85.42,3,3,0,0,0-1.24,1.27,4.7,4.7,0,0,0-.44,2.12v6.38h-2.95V83.27h2.95V91.6l-.64-1a4.44,4.44,0,0,1,1.93-1.86A6.25,6.25,0,0,1,263.61,88.05Z"/><path d="M299,88.05a6,6,0,0,1,2.71.59,4.27,4.27,0,0,1,1.88,1.81,6.17,6.17,0,0,1,.69,3.13v7.24h-3V94a3.44,3.44,0,0,0-.79-2.5,2.88,2.88,0,0,0-2.21-.83,4,4,0,0,0-1.85.42,3,3,0,0,0-1.24,1.27,4.7,4.7,0,0,0-.44,2.12v6.38h-3V88.19h2.81V91.6l-.5-1A4.56,4.56,0,0,1,296,88.74,6.33,6.33,0,0,1,299,88.05Z"/><path d="M332.87,101a7,7,0,0,1-3.45-.84,6.6,6.6,0,0,1-2.39-9,6.23,6.23,0,0,1,2.39-2.28,7,7,0,0,1,3.45-.83,7.16,7.16,0,0,1,3.49.83,6.07,6.07,0,0,1,2.39,2.27,6.92,6.92,0,0,1,0,6.69,6.17,6.17,0,0,1-2.39,2.31A7.17,7.17,0,0,1,332.87,101Zm0-2.53a4,4,0,0,0,1.94-.47,3.36,3.36,0,0,0,1.34-1.38,4.88,4.88,0,0,0,0-4.22A3.44,3.44,0,0,0,334.81,91,4.16,4.16,0,0,0,331,91a3.57,3.57,0,0,0-1.34,1.36,4.74,4.74,0,0,0,0,4.22A3.62,3.62,0,0,0,331,98,3.85,3.85,0,0,0,332.87,98.46Z"/><path d="M361.61,100.82V83.27h2.92v17.55Z"/><path d="M393.28,101a7,7,0,0,1-3.45-.84,6.6,6.6,0,0,1-2.39-9,6.23,6.23,0,0,1,2.39-2.28,7,7,0,0,1,3.45-.83,7.16,7.16,0,0,1,3.49.83,6.07,6.07,0,0,1,2.39,2.27,6.92,6.92,0,0,1,0,6.69,6.17,6.17,0,0,1-2.39,2.31A7.17,7.17,0,0,1,393.28,101Zm0-2.53a4,4,0,0,0,1.94-.47,3.36,3.36,0,0,0,1.34-1.38,4.88,4.88,0,0,0,0-4.22A3.44,3.44,0,0,0,395.22,91a4.16,4.16,0,0,0-3.84,0A3.57,3.57,0,0,0,390,92.39a4.74,4.74,0,0,0,0,4.22A3.62,3.62,0,0,0,391.38,98,3.85,3.85,0,0,0,393.28,98.46Z"/><path d="M427.36,100.26a6.94,6.94,0,0,1-3.25-.77,6,6,0,0,1-2.29-2.14,6.18,6.18,0,0,1-.84-3.22,6,6,0,0,1,.84-3.19,5.73,5.73,0,0,1,2.29-2.13,6.82,6.82,0,0,1,3.25-.76,6.26,6.26,0,0,1,2.89.64,4.82,4.82,0,0,1,2,2,8.18,8.18,0,0,1,0,6.91,5,5,0,0,1-2,2A6.25,6.25,0,0,1,427.36,100.26Zm.38,5.32a13.23,13.23,0,0,1-3.42-.46,7.57,7.57,0,0,1-2.73-1.34l1.33-2.22a6.76,6.76,0,0,0,2.09,1.1,8.32,8.32,0,0,0,2.57.41,4.23,4.23,0,0,0,3.05-1,3.89,3.89,0,0,0,1-2.87V97l.23-2.86-.09-2.86V88.15h2.76V98.87c0,2.28-.58,4-1.75,5A7.16,7.16,0,0,1,427.74,105.58Zm.07-7.83a4.32,4.32,0,0,0,2-.46A3.36,3.36,0,0,0,431.17,96a3.82,3.82,0,0,0,0-3.76A3.16,3.16,0,0,0,429.81,91a4.18,4.18,0,0,0-2-.44,4.36,4.36,0,0,0-2,.44,3.3,3.3,0,0,0-1.37,1.25,3.92,3.92,0,0,0,0,3.76,3.51,3.51,0,0,0,1.37,1.28,4.5,4.5,0,0,0,2,.48Z"/><path d="M459.08,86.11a1.88,1.88,0,0,1-1.36-.52,1.77,1.77,0,0,1,0-2.49l0,0a2.09,2.09,0,0,1,2.72,0,1.53,1.53,0,0,1,.54,1.22,1.83,1.83,0,0,1-.52,1.31A1.9,1.9,0,0,1,459.08,86.11Zm-1.49,14.71V88.19h3v12.63Z"/><path d="M489.53,101a7.69,7.69,0,0,1-3.67-.84,6.23,6.23,0,0,1-2.44-2.31,6.47,6.47,0,0,1-.86-3.33,6.65,6.65,0,0,1,.84-3.35,6,6,0,0,1,2.31-2.28,6.77,6.77,0,0,1,3.38-.83,6.56,6.56,0,0,1,3.28.8,5.72,5.72,0,0,1,2.27,2.28,6.7,6.7,0,0,1,.83,3.45v.87H484.89v-2h9l-1.16.62a3.48,3.48,0,0,0-.45-1.92,3.4,3.4,0,0,0-1.28-1.3,4,4,0,0,0-3.79,0,3.36,3.36,0,0,0-1.28,1.31,4.32,4.32,0,0,0-.46,2v.47a3.91,3.91,0,0,0,.52,2A3.67,3.67,0,0,0,487.46,98a5,5,0,0,0,2.18.47,5.16,5.16,0,0,0,1.91-.33,4.11,4.11,0,0,0,1.52-1l1.58,1.82a5.65,5.65,0,0,1-2.14,1.53A7.77,7.77,0,0,1,489.53,101Z"/><path d="M521.36,101a11.3,11.3,0,0,1-3-.41,8.11,8.11,0,0,1-2.3-1l1.13-2.25a7.82,7.82,0,0,0,2,.9,7.9,7.9,0,0,0,2.36.36,4.16,4.16,0,0,0,2-.38,1.13,1.13,0,0,0,.63-1,.86.86,0,0,0-.43-.79,3.11,3.11,0,0,0-1.11-.42c-.45-.09-1-.18-1.52-.26s-1.12-.18-1.68-.31a6.09,6.09,0,0,1-1.53-.6,2.93,2.93,0,0,1-1.53-2.8,3.4,3.4,0,0,1,.68-2.09A4.4,4.4,0,0,1,519,88.57a7.77,7.77,0,0,1,2.94-.49,12.36,12.36,0,0,1,2.58.28,6.59,6.59,0,0,1,2.15.81l-1.13,2.22a5.55,5.55,0,0,0-1.81-.75,8.44,8.44,0,0,0-1.81-.2,3.85,3.85,0,0,0-2,.4,1.2,1.2,0,0,0-.65,1,1,1,0,0,0,.43.85,3.46,3.46,0,0,0,1.11.45,13.46,13.46,0,0,0,1.52.27,13.3,13.3,0,0,1,1.67.32,6.89,6.89,0,0,1,1.53.58,2.92,2.92,0,0,1,1.12,1,3.08,3.08,0,0,1,.43,1.73,3.19,3.19,0,0,1-.7,2,4.4,4.4,0,0,1-2,1.36A8.57,8.57,0,0,1,521.36,101Z"/></g></g></svg>