<svg xmlns="http://www.w3.org/2000/svg" viewBox="0 0 993.36 284.07"><defs><style>.cls-1{fill:none;}.cls-2,.cls-4{fill:#fff;}.cls-3{fill:#f7f9f9;}.cls-4{font-size:102.81px;}.cls-4,.cls-9{font-family:Montserrat-SemiBold, Montserrat;font-weight:600;}.cls-5{letter-spacing:-0.05em;}.cls-6{letter-spacing:0em;}.cls-7{letter-spacing:-0.02em;}.cls-8{letter-spacing:-0.01em;}.cls-9{font-size:38.47px;fill:#fdffff;letter-spacing:0.76em;}.cls-10{letter-spacing:0.81em;}.cls-11{letter-spacing:0.81em;}.cls-12{letter-spacing:0.81em;}.cls-13{letter-spacing:0.81em;}</style></defs><g id="Layer_2" data-name="Layer 2"><g id="Layer_1-2" data-name="Layer 1"><path class="cls-1" d="M188,151.22a3.55,3.55,0,0,0-2.09-.68,3.66,3.66,0,0,0-.57.05,3.56,3.56,0,0,0-3,4.09,3.58,3.58,0,0,0,4.09,3,3.56,3.56,0,0,0,2.33-1.43h0A3.59,3.59,0,0,0,188,151.22Z"/><path class="cls-1" d="M115.67,231.26a7.55,7.55,0,0,0,8.09-6.94,7.55,7.55,0,0,0-6.94-8.1,5.82,5.82,0,0,0-.59,0,7.54,7.54,0,0,0-.56,15.06Z"/><path class="cls-1" d="M185.51,74.37l-.43,0a4.68,4.68,0,0,0-4.24,5.1,4.68,4.68,0,1,0,4.67-5.12Z"/><path class="cls-1" d="M98.22,155.16a3.59,3.59,0,0,0,2.67.64,3.54,3.54,0,0,0,2.33-1.44h0a3.58,3.58,0,1,0-5,.8Z"/><path class="cls-1" d="M110.15,86.55a4.69,4.69,0,1,0-1-6.54A4.7,4.7,0,0,0,110.15,86.55Z"/><path class="cls-1" d="M241.76,65.71A119.62,119.62,0,0,1,256.63,88a14.26,14.26,0,0,1,18,4.91c.12.18.23.37.34.55a133.51,133.51,0,0,0-23.11-38.27Z"/><path class="cls-1" d="M192.36,229.12a7.54,7.54,0,0,0,1.16-15l-.59,0a7.45,7.45,0,0,0-3.78,1l-1.14.81a7.53,7.53,0,0,0,4.35,13.22Z"/><path class="cls-1" d="M250.54,53.68A132.89,132.89,0,0,0,50.19,55.21L59,67.3A118.4,118.4,0,0,1,239.38,63l10-10.39Z"/><path class="cls-1" d="M264.15,94a7,7,0,0,0-4.45.57,7.73,7.73,0,0,0-.88.51,7,7,0,0,0-2.94,4.32c0,.07,0,.14-.07.21a6.88,6.88,0,0,0-.05,2.26,7.1,7.1,0,0,0,2.81,4.78,6.92,6.92,0,0,0,2.86,1.29,7.06,7.06,0,0,0,3.17-.13l.31-.1A7.08,7.08,0,0,0,264.15,94Z"/><path class="cls-2" d="M184.17,230.1a14.68,14.68,0,0,0,10.26,4.74h1.15a14.76,14.76,0,1,0-5.09-28.78l-86.41-112-8.56,6.61,86.6,112.21a14.75,14.75,0,0,0,2,17.18Zm5.71-15.53,1.11-.85a7.38,7.38,0,0,1,3.74-1.16h.59a7.54,7.54,0,1,1-5.44,2Z"/><path class="cls-1" d="M188.5,75.46a4.61,4.61,0,0,0-3-1.09l-.43,0a4.68,4.68,0,0,0-4.24,5.1,4.68,4.68,0,1,0,7.66-4Z"/><path class="cls-1" d="M115.67,231.26a7.55,7.55,0,0,0,8.09-6.94,7.55,7.55,0,0,0-6.94-8.1,5.82,5.82,0,0,0-.59,0,7.54,7.54,0,0,0-.56,15.06Z"/><path class="cls-1" d="M188,151.22a3.55,3.55,0,0,0-2.09-.68,3.66,3.66,0,0,0-.57.05,3.56,3.56,0,0,0-3,4.09,3.58,3.58,0,0,0,4.09,3,3.56,3.56,0,0,0,2.33-1.43h0A3.59,3.59,0,0,0,188,151.22Z"/><path class="cls-1" d="M98.22,155.16a3.59,3.59,0,0,0,2.67.64,3.54,3.54,0,0,0,2.33-1.44h0a3.58,3.58,0,1,0-5,.8Z"/><path class="cls-1" d="M110.15,86.55a4.69,4.69,0,1,0-1-6.54A4.7,4.7,0,0,0,110.15,86.55Z"/><path class="cls-1" d="M250.54,53.68A132.89,132.89,0,0,0,50.19,55.21L59,67.3A118.4,118.4,0,0,1,239.38,63l10-10.39Z"/><path class="cls-1" d="M241.76,65.71A119.62,119.62,0,0,1,256.63,88a14.26,14.26,0,0,1,18,4.91c.12.18.23.37.34.55a133.51,133.51,0,0,0-23.11-38.27Z"/><path class="cls-1" d="M264.15,94a7,7,0,0,0-4.45.57,7.73,7.73,0,0,0-.88.51,7,7,0,0,0-2.94,4.32c0,.07,0,.14-.07.21a6.88,6.88,0,0,0-.05,2.26,7.1,7.1,0,0,0,2.81,4.78,6.92,6.92,0,0,0,2.86,1.29,7.06,7.06,0,0,0,3.17-.13l.31-.1A7.08,7.08,0,0,0,264.15,94Z"/><path class="cls-1" d="M188.5,75.46a4.61,4.61,0,0,0-3-1.09l-.43,0a4.68,4.68,0,0,0-4.24,5.1,4.68,4.68,0,1,0,7.66-4Z"/><path class="cls-1" d="M115.67,231.26a7.55,7.55,0,0,0,8.09-6.94,7.55,7.55,0,0,0-6.94-8.1,5.82,5.82,0,0,0-.59,0,7.54,7.54,0,0,0-.56,15.06Z"/><path class="cls-1" d="M188,151.22a3.55,3.55,0,0,0-2.09-.68,3.66,3.66,0,0,0-.57.05,3.56,3.56,0,0,0-3,4.09,3.58,3.58,0,0,0,4.09,3,3.56,3.56,0,0,0,2.33-1.43h0A3.59,3.59,0,0,0,188,151.22Z"/><path class="cls-1" d="M110.15,86.55a4.69,4.69,0,1,0-1-6.54A4.7,4.7,0,0,0,110.15,86.55Z"/><path class="cls-1" d="M98.22,155.16a3.59,3.59,0,0,0,2.67.64,3.54,3.54,0,0,0,2.33-1.44h0a3.58,3.58,0,1,0-5,.8Z"/><path class="cls-1" d="M250.54,53.68A132.89,132.89,0,0,0,50.19,55.21L59,67.3A118.4,118.4,0,0,1,239.38,63l10-10.39Z"/><path class="cls-1" d="M241.76,65.71A119.62,119.62,0,0,1,256.63,88a14.26,14.26,0,0,1,18,4.91c.12.18.23.37.34.55a133.51,133.51,0,0,0-23.11-38.27Z"/><path class="cls-1" d="M264.15,94a7,7,0,0,0-4.45.57,7.73,7.73,0,0,0-.88.51,7,7,0,0,0-2.94,4.32c0,.07,0,.14-.07.21a6.88,6.88,0,0,0-.05,2.26,7.1,7.1,0,0,0,2.81,4.78,6.92,6.92,0,0,0,2.86,1.29,7.06,7.06,0,0,0,3.17-.13l.31-.1A7.08,7.08,0,0,0,264.15,94Z"/><path class="cls-3" d="M292.45,155c.39-4.28.62-8.61.62-13,0-78.31-63.72-142-142-142A142.22,142.22,0,0,0,20.16,86.91l6.52,7.58A133.53,133.53,0,0,1,47.8,58.06l8.85,12.19a118.56,118.56,0,0,0-19,37l4.22,4.9A113,113,0,0,1,60,74.82l24.89,34.27,11.84,37a6.9,6.9,0,0,0-2.2,2,7.19,7.19,0,1,0,10-1.6,7.06,7.06,0,0,0-4.35-1.34L88.13,107.43,62.27,71.84A114.43,114.43,0,0,1,91.07,46l14,30.43c-.11.13-.23.23-.33.37a10.11,10.11,0,1,0,6.59-4l-14-30.43A113,113,0,0,1,202,41L186.81,69.07a9.68,9.68,0,0,0-2.22-.06,10.1,10.1,0,0,0,.9,20.15c.31,0,.62,0,.93,0a10.07,10.07,0,0,0,6.74-16.61l15.2-28.09a114.06,114.06,0,0,1,27.26,22.46L196.2,107.69l-10,39.26a7.18,7.18,0,1,0-.33,14.36,6.38,6.38,0,0,0,1.15-.1,7.12,7.12,0,0,0,4.68-2.87,7.2,7.2,0,0,0-1.59-10c-.15-.1-.31-.17-.46-.26l9.84-38.53L238,69.62a113.26,113.26,0,0,1,14.24,21.67,14.25,14.25,0,0,0-1.51,17.31l-63.27,84.83,8.67,6.48,63.43-85c.17,0,.33.09.51.12s.63.1.94.14a113.22,113.22,0,1,1-223.2,27.1l65.15,75.13a14.74,14.74,0,0,0,12.18,21.09c.38,0,.77.05,1.15.05A14.77,14.77,0,0,0,131,224.87,14.78,14.78,0,0,0,117.37,209a14.6,14.6,0,0,0-6.63,1L5.37,88.56,0,98.66l12.1,14A141.25,141.25,0,0,0,9,142c0,78.32,63.71,142,142,142,69.49,0,127.44-50.17,139.63-116.18l-11.13,9C264.16,233.47,212.39,275.2,151,275.2,77.6,275.2,17.87,215.46,17.87,142a131.4,131.4,0,0,1,1.67-20.84l13,15c-.1,1.94-.17,3.89-.17,5.85a118.66,118.66,0,1,0,234.12-27.28,14.26,14.26,0,0,0,10.43-16A132.66,132.66,0,0,1,284.2,142a134.06,134.06,0,0,1-1.68,21.05Zm-195-4.87a3.58,3.58,0,0,1,2.9-1.47,3.57,3.57,0,0,1,2.89,5.67h0a3.54,3.54,0,0,1-2.33,1.44,3.58,3.58,0,0,1-3.46-5.64ZM109.11,80a4.69,4.69,0,1,1,1,6.54A4.66,4.66,0,0,1,109.11,80Zm80,2a4.69,4.69,0,1,1-4-7.67l.43,0a4.7,4.7,0,0,1,3.6,7.69Zm-.36,74.16h0a3.56,3.56,0,0,1-2.33,1.43,3.58,3.58,0,0,1-4.09-3,3.56,3.56,0,0,1,3-4.09,3.66,3.66,0,0,1,.57-.05,3.55,3.55,0,0,1,2.09.68A3.59,3.59,0,0,1,188.75,156.22Zm-80,66.94a7.53,7.53,0,0,1,7.51-7,5.82,5.82,0,0,1,.59,0,7.55,7.55,0,0,1,6.94,8.1,7.54,7.54,0,0,1-13.24,4.33A7.53,7.53,0,0,1,108.72,223.16ZM151,23.38A118.44,118.44,0,0,0,59,67.3L50.19,55.21a132.89,132.89,0,0,1,200.35-1.53l-1.12-1.09L239.38,63A118.29,118.29,0,0,0,151,23.38ZM269.76,102.3a6.87,6.87,0,0,1-4.85,5.38l-.31.1a7.06,7.06,0,0,1-3.17.13,6.92,6.92,0,0,1-2.86-1.29,7.1,7.1,0,0,1-2.81-4.78,6.88,6.88,0,0,1,.05-2.26c0-.07.05-.14.07-.21a7,7,0,0,1,2.94-4.32,7.73,7.73,0,0,1,.88-.51,7.1,7.1,0,0,1,10.06,7.76Zm4.9-9.36a14.26,14.26,0,0,0-18-4.91,119.62,119.62,0,0,0-14.87-22.32l10.13-10.49A133.51,133.51,0,0,1,275,93.49C274.89,93.31,274.78,93.12,274.66,92.94Z"/><text class="cls-4" transform="translate(335.87 172.42)"><tspan class="cls-5">W</tspan><tspan class="cls-6" x="111.96" y="0">es</tspan><tspan class="cls-7" x="228.86" y="0">t</tspan><tspan class="cls-8" x="270.6" y="0">c</tspan><tspan x="329.51" y="0">ombe</tspan></text><text class="cls-9" transform="translate(357.29 236.36)">T<tspan class="cls-10" x="52.2" y="0">e</tspan><tspan class="cls-11" x="107.29" y="0">c</tspan><tspan class="cls-10" x="160.6" y="0">h</tspan><tspan class="cls-12" x="218.11" y="0">n</tspan><tspan class="cls-13" x="275.66" y="0">ologies</tspan></text></g></g></svg>