<svg xmlns="http://www.w3.org/2000/svg" viewBox="0 0 868.51 258.11"><defs><style>.cls-1{fill:#fcfcfc;}</style></defs><g id="Layer_2" data-name="Layer 2"><g id="Layer_1-2" data-name="Layer 1"><path class="cls-1" d="M168.9,113.94c4.24-8.2,7.67-16,12.1-23.2,20.37-33,67.51-41.17,98.06-17.25,23,18,31.68,41.67,26.83,70.17-5.11,30-32.86,53.8-63.32,55.55a85,85,0,0,1-47.42-10.91c-1.23-.69-2.54-1.24-4.53-2.19-1.44,6.47-2.8,12.44-4.08,18.42-3.51,16.39-7.07,32.76-10.4,49.19-.7,3.47-2.4,4.44-5.64,4.39-8.67-.13-17.35,0-26-.06-5,0-5.49-.62-4.42-5.63q6.31-29.68,12.67-59.35c2.29-10.73,4.59-21.47,6.68-32.24a8,8,0,0,0-.73-5.23c-6.87-11.36-14-22.59-21-33.85a3.42,3.42,0,0,0-2.37-1.57c0,3.62-.09,7.23,0,10.84.45,14.88-4.19,28.13-12.59,40.23C96.25,209.4,37.68,208.65,11.94,170,3.24,157,0,142.72,0,127.36Q.06,87.9,0,48.43c0-.87.07-1.74.05-2.6C0,41.76,1.52,39.87,6,40.05c7.79.32,15.6.08,23.41.09,6.07,0,6.1,0,6.1,6q0,41.62,0,83.26c0,19.32,11.93,33,31.1,34.39C82.52,164.86,96.76,153,99.53,137a58.61,58.61,0,0,0,.78-9.91c.06-27,0-54.07,0-81.1,0-5.61.21-5.8,5.9-5.82,8.09,0,16.19.16,24.28-.05,3.68-.1,5.39,1.29,6.46,4.78a271.52,271.52,0,0,0,26.56,60.58C165.25,108.26,167.06,111,168.9,113.94Zm75.38-18.33c-21.5-.23-31.08,7.69-36.78,20.28-3.23,7.15-5,15-6.85,22.72-2.47,10.12-2.35,10.34,6.72,15.9,11.48,7,23.73,11.44,37.46,8.48,16.27-3.52,28.57-19.71,26.95-35.1C269.75,108.51,256.06,95.63,244.28,95.61Z"/><path class="cls-1" d="M399.07,107.48c-2.61,10.35-5.18,20.7-7.82,31C386.7,156.27,382,174,377.59,191.8c-.74,3-2,4-5,3.95-7.66-.17-15.32-.14-23,0-2.64,0-3.84-1-4.56-3.5Q327,129.81,308.88,67.4a34.41,34.41,0,0,1-.59-3.88c9.64,0,18.84-.14,28,.18,1.08,0,2.61,2.4,3,3.93,5.26,18.77,10.35,37.59,15.5,56.4,2.51,9.15,5.05,18.3,8.34,27.46q4.74-19.28,9.48-38.54C376.46,97.67,380.31,82.4,384,67.1c.66-2.73,2.05-3.75,4.84-3.7,6.65.15,13.31.32,19.94-.06,4.22-.24,5.75,1.44,6.69,5.32,6.26,26,12.73,51.89,19.15,77.82a10.48,10.48,0,0,0,2.09,4.46c1.47-5.21,3-10.4,4.39-15.62,6.13-22.43,12.3-44.84,18.29-67.31.89-3.37,2.35-4.78,5.94-4.65,6.93.26,13.87.06,20.81.1,1.4,0,2.79.21,4.81.38-1.08,4.07-2,7.68-3,11.23q-16.86,58.05-33.68,116.09c-.95,3.29-2.3,4.78-5.95,4.62-7.07-.29-14.17-.34-21.23,0-4.07.21-5.12-1.78-6-5.1q-10.26-40.75-20.73-81.45c-.14-.54-.31-1.07-.47-1.61Z"/><path class="cls-1" d="M816.69,125l51.82,70.68h-6.72c-8.52,0-17.06-.12-25.58.06a7.68,7.68,0,0,1-7.21-3.54c-12.72-17.55-25.63-35-38.52-52.39-1.1-1.49-2.32-3.26-3.9-3.94a17.37,17.37,0,0,0-7.35-1.23c-.43,0-1,3.52-1,5.42-.08,16.92-.15,33.83,0,50.74,0,3.8-1.11,5.1-4.93,5-6.93-.26-13.88-.28-20.81,0-4.08.17-5.15-1.37-5.14-5.25q.17-58.77.07-117.54c0-22.41.1-44.82-.09-67.22,0-4.29,1.1-6,5.59-5.75,6.78.33,13.59.27,20.38,0,3.84-.15,4.94,1.24,4.93,5-.13,30.79-.07,61.58-.07,92.38,0,6.1.22,6.29,6.39,5.82a39.55,39.55,0,0,0,35.93-33.79c.85-6,.85-6,6.87-6H846c5.78,0,6.23.44,5.6,6.23-2.41,22.08-12.54,39.66-30.8,52.44Z"/><path class="cls-1" d="M631.56,130.16a70,70,0,0,1-70.33,69.71c-38.7-.1-70-31.74-69.67-70.85.28-37.65,30-69.46,70.17-69.38C604.48,59.72,632.19,94.84,631.56,130.16Zm-29.7-.34a39.69,39.69,0,0,0-40-40.28c-22.84,0-40.63,17.51-40.65,40.08a40.31,40.31,0,1,0,80.62.2Z"/><path class="cls-1" d="M680.13,82c3.9-3.49,7-6.68,10.54-9.34,10.2-7.68,22-9.81,34.45-9,1.13.07,3.06,1.91,3.09,3,.26,7.94.11,15.9.14,23.85,0,2.92-1.68,3.59-4.21,3.62-4.76.06-9.61-.24-14.27.55-17.62,3-29.57,17.46-29.7,35.83-.14,19.52,0,39,0,58.56,0,6.72,0,6.72-6.92,6.72-6.36,0-12.73-.13-19.08.05-3.26.09-4.68-.88-4.68-4.38q.12-61.81,0-123.63c0-3.13,1.12-4.4,4.33-4.34q11.06.23,22.11,0c3.21-.07,4.39,1.16,4.27,4.33C680,72.28,680.13,76.84,680.13,82Z"/></g></g></svg>